<?xml version="1.0" encoding="utf-8" ?>
<svg baseProfile="full" height="300mm" version="1.1" viewBox="0,0,200,300" width="200mm" xmlns="http://www.w3.org/2000/svg" xmlns:ev="http://www.w3.org/2001/xml-events" xmlns:xlink="http://www.w3.org/1999/xlink"><defs /><rect fill="#222222" height="300" width="200" x="0" y="0" /><text fill="#FFFFFF" style="font-size:12px; font-family:Arial; font-weight:bold;" x="10" y="20">Over 3km Runs</text><text fill="#FFFFFF" style="font-size:4px; font-family:Arial" x="10" y="280">ATHLETE</text><text fill="#FFFFFF" style="font-size:9px; font-family:Arial" x="10" y="290">GanNaSong</text><text fill="#FFFFFF" style="font-size:4px; font-family:Arial" x="120" y="280">STATISTICS</text><text fill="#FFFFFF" style="font-size:3px; font-family:Arial" x="120" y="285">Number: 8</text><text fill="#FFFFFF" style="font-size:3px; font-family:Arial" x="120" y="290">Weekly: 1.0</text><text fill="#FFFFFF" style="font-size:3px; font-family:Arial" x="141" y="285">Total: 37.0 km</text><text fill="#FFFFFF" style="font-size:3px; font-family:Arial" x="141" y="290">Avg: 4.6 km</text><text fill="#FFFFFF" style="font-size:3px; font-family:Arial" x="167" y="285">Min: 3.7 km</text><text fill="#FFFFFF" style="font-size:3px; font-family:Arial" x="167" y="290">Max: 6.5 km</text><polyline fill="none" points="48.10052904486656,43.16888301074505 41.11183731816709,34.40260598366149 28.087457286193967,40.363676307257265 26.18145045079291,79.63640357973054 36.02915242686868,87.0 51.91254271380603,79.63640357973054 51.91254271380603,44.92213627160527 39.20583048462868,33.0 28.722792895510793,40.714327244553715 28.087457286193967,76.83122067339718 39.20583048462868,86.29870564723387 50.006535878404975,80.68834669725038 51.594874907284975,46.32473836536519 39.523498291149735,34.0519545301795 33.170142175629735,34.0519545301795 27.76978947967291,41.415629036026075 26.18145045079291,73.67538771475665 36.66448803991079,85.94805842661299 51.27720710262656,78.23381235497072 51.594874907284975,42.11693071201444 40.476501708850265,33.701303048059344 29.35812850855291,37.909118939889595 28.722792895510793,78.93510802555829 42.70017634704709,86.29870564723387 51.594874907284975,72.97409118735231 51.594874907284975,43.8701844017487 40.476501708850265,34.0519545301795 29.99346411973238,38.9610722695943 28.722792895510793,72.62344288104214 36.346820233389735,86.29870564723387 49.68886807188392,79.63640357973054 51.27720710262656,45.974087884416804 46.51219001598656,41.06497815507464 53.818549547344446,42.467581507284194 53.818549547344446,47.02603924041614 51.27720710262656,39.311723321443424 38.570494873449206,33.701303048059344 29.35812850855291,40.714327244553715 29.35812850855291,77.18186863628216 39.20583048462868,86.64935283805244 51.91254271380603,75.42862853361294 51.91254271380603,45.974087884416804 44.28851537592709,35.10390880377963 29.99346411973238,38.2597700774204 28.087457286193967,77.5325165707618 36.66448803991079,86.29870564723387 50.959539296105504,76.48057268117554 50.64187149144709,44.571485677035525 39.523498291149735,34.0519545301795 29.04046070203185,38.9610722695943 27.76978947967291,74.37668412853964 34.758481204509735,84.1948218990583 41.42950512468815,85.59741117805243 52.230210518464446,74.37668412853964 50.959539296105504,41.76627988810651 38.25282706692815,34.40260598366149 28.087457286193967,41.06497815507464 27.76978947967291,77.88316447776742 36.02915242686868,84.89611659594811 45.87685440480709,83.49352708738297 51.594874907284975,75.07798042683862 52.230210518464446,46.67538881674409 42.70017634704709,34.40260598366149 30.62879973091185,38.2597700774204 29.04046070203185,75.07798042683862 38.25282706692815,84.54546926124021 46.51219001598656,83.1428796381224 52.230210518464446,75.07798042683862 52.86554613150656,45.62343737552874 44.60618318244815,34.40260598366149 30.62879973091185,37.909118939889595 27.76978947967291,72.62344288104214 36.02915242686868,83.84417450823821 48.73586465604603,79.63640357973054 51.91254271380603,44.22083505312912 45.24151879362762,40.363676307257265 53.50088174082339,44.22083505312912 44.60618318244815,34.0519545301795 35.07614901103079,35.45456017064862 29.675796313211322,42.11693071201444 28.40512509085238,75.42862853361294 38.570494873449206,85.59741117805243 50.64187149144709,75.77927661105059 51.594874907284975,41.415629036026075 41.74717292934656,33.701303048059344 30.311131924390793,38.9610722695943 29.04046070203185,74.02603593585081 37.61749145761132,84.89611659594811 50.006535878404975,78.58446020446718 51.91254271380603,42.467581507284194 38.88816267810762,33.701303048059344 29.99346411973238,40.013025340856984 29.04046070203185,74.72733229212463 39.84116609767079,84.54546926124021 50.959539296105504,77.5325165707618 52.230210518464446,45.27278683753684 47.14752562716603,35.80521150841378 31.264135342091322,37.55846777302213 28.40512509085238,72.97409118735231 30.946467535570264,80.68834669725038 39.523498291149735,84.89611659594811 51.27720710262656,75.77927661105059 51.27720710262656,41.06497815507464 41.74717292934656,34.0519545301795 29.35812850855291,42.467581507284194 28.722792895510793,74.72733229212463 42.06484073586762,84.1948218990583 50.64187149144709,76.83122067339718 50.64187149144709,42.11693071201444" stroke="#4dd2ff" stroke-linecap="round" stroke-linejoin="round" stroke-width="0.5"><title>2021-12-14 6.5km</title></polyline><polyline fill="none" points="172.01940658688545,41.37934383563697 156.8369982689619,33.0 145.02845846302807,47.89660275680944 149.2457941081375,79.55175451375544 165.69340312108397,83.2758784708567 173.2846072819084,71.17246672371402 172.44114015065134,41.37934383563697 159.78913321904838,35.32759674312547 146.7153927218169,44.172455713152885 147.9805934149772,75.8276281254366 163.16300173476338,86.0689698443748 172.86287371627986,76.75865994999185 171.17593945935369,39.98278738418594 155.15006401017308,35.79311597906053 146.7153927218169,49.758675368502736 149.2457941081375,78.62072314461693 161.89780103974044,86.0689698443748 173.2846072819084,75.3621121570468 173.2846072819084,41.37934383563697 159.78913321904838,34.86207747133449 147.55885984934866,44.63797422684729 147.9805934149772,77.68969162460417 161.4760674778372,86.0689698443748 173.2846072819084,76.29314405750483 173.2846072819084,39.98278738418594 157.25873183086514,34.86207747133449 147.55885984934866,45.569011139217764 147.13712628372014,79.08623884711415 162.74126816913486,86.0689698443748 173.70634084567428,72.10349930822849 169.06727163679898,43.24141857260838 174.97154153883457,47.431084509938955 174.97154153883457,43.24141857260838 159.36739965341985,35.32759674312547 147.55885984934866,45.569011139217764 148.8240605443716,75.8276281254366 164.84993599168956,84.6724243289791 172.01940658688545,73.03453174093738 174.12807440944016,43.24141857260838 160.2108667846769,34.86207747133449 146.7153927218169,48.82763913832605 145.87192559055984,77.22417580615729 159.36739965341985,85.60345471091568 171.17593945935369,79.55175451375544 172.86287371627986,41.84486257703975 162.31953460536897,34.86207747133449 148.8240605443716,43.24141857260838 145.87192559055984,74.8965961500071 161.4760674778372,86.53448494104668 172.44114015065134,78.15520740346983 171.59767302125692,40.913825056515634 161.05433391220868,35.79311597906053 149.66752767190337,44.63797422684729 150.93272836320102,79.55175451375544 162.31953460536897,86.0689698443748 172.44114015065134,76.75865994999185 173.2846072819084,45.569011139217764 161.89780103974044,34.86207747133449 149.66752767190337,41.84486257703975 149.66752767190337,79.55175451375544 160.6326003484428,85.60345471091568 172.86287371627986,77.22417580615729 172.01940658688545,46.034529539290816 164.0064688641578,43.24141857260838 174.5498079750687,44.172455713152885 159.78913321904838,35.32759674312547 147.55885984934866,45.569011139217764 148.40232697874308,73.96556402137503 157.68046539649367,86.0689698443748 164.84993599168956,85.60345471091568 172.86287371627986,75.3621121570468 172.01940658688545,41.84486257703975 160.2108667846769,34.86207747133449 148.40232697874308,44.172455713152885 148.40232697874308,78.15520740346983 164.0064688641578,84.6724243289791 172.86287371627986,73.500047899317 173.2846072819084,43.24141857260838 158.94566608965397,34.39655816089362 147.13712628372014,46.50004790024832 150.08926123566926,77.22417580615729 163.16300173476338,86.53448494104668 173.2846072819084,73.03453174093738 173.2846072819084,42.310381279326975 155.15006401017308,36.724154334980994 147.55885984934866,48.36212096689269 152.19792905822396,80.94830128317699 164.42820242606103,86.0689698443748 173.2846072819084,75.8276281254366 173.70634084567428,44.63797422684729 161.89780103974044,34.86207747133449 149.2457941081375,41.37934383563697 149.2457941081375,78.62072314461693 163.58473529852927,87.0 173.2846072819084,73.96556402137503 172.44114015065134,45.10349270235747 164.42820242606103,38.12071158317849 171.59767302125692,46.96556622488424 172.86287371627986,39.98278738418594 161.05433391220868,33.465519425459206 147.13712628372014,46.96556622488424 149.66752767190337,82.34484771033749 166.1151366867125,86.0689698443748 174.12807440944016,75.3621121570468 172.44114015065134,39.051749560050666 156.41526470333338,35.79311597906053 147.13712628372014,46.96556622488424 149.66752767190337,80.48278573108837 168.22380450740457,85.13793953880668 174.12807440944016,72.56901554297656 170.33247232809663,42.77589994529262" stroke="#4dd2ff" stroke-linecap="round" stroke-linejoin="round" stroke-width="0.5"><title>2021-11-30 5.3km</title></polyline><polyline fill="none" points="48.098381320014596,105.40546308457851 35.53762662038207,94.09460106818005 28.926703091710806,95.18920186813921 22.315779564902186,104.67573091480881 23.968510448932648,139.70274079730734 36.52926514856517,145.90541187860072 46.445650439709425,138.60815089056268 47.43728896975517,102.85139996791258 40.82636544294655,94.45946803083643 31.571072502061725,93.72973407479003 21.985233388841152,106.50006111711264 24.96014897711575,139.70274079730734 37.520903676748276,147.0 46.445650439709425,138.60815089056268 47.43728896975517,101.75680104317144 33.884895738214254,93.36486705159768 23.637964272871614,99.93246890651062 23.30741809681058,137.87842413736507 38.181996032595634,146.27027461491525 47.43728896975517,138.60815089056268 47.43728896975517,101.02706827782094 37.851449854671955,93.36486705159768 24.629602801054716,100.29733539326116 24.629602801054716,138.973014222458 38.51254220679402,146.27027461491525 47.76783514395356,133.13519733725116 46.445650439709425,99.2027358431369 30.909980149939656,94.09460106818005 23.968510448932648,102.4865336897783 23.968510448932648,137.87842413736507 31.901618679985404,146.63513732282445 45.45401190966368,140.43246725434437 48.098381320014596,110.51358494209126 44.13182720541954,99.56760238902643 49.42056602798402,104.67573091480881 38.51254220679402,93.36486705159768 24.96014897711575,100.66220184927806 24.299056624993682,135.6892431625165 35.868172796443105,146.27027461491525 47.43728896975517,133.8649248648435 47.10674279183149,99.56760238902643 33.55434956215322,93.0 24.629602801054716,103.21626621624455 25.62124132923782,139.33787752548233 38.8430883847177,146.27027461491525 47.10674279183149,137.51356071513146 47.43728896975517,101.02706827782094 33.884895738214254,93.0 23.30741809681058,104.31086478475481 24.299056624993682,138.2432875293307 37.851449854671955,145.90541187860072 46.77619661577046,137.51356071513146 48.42892749607563,102.4865336897783 37.19035750068724,93.36486705159768 24.96014897711575,99.93246890651062 24.96014897711575,139.33787752548233 38.51254220679402,146.27027461491525 47.76783514395356,134.22978858323768 47.43728896975517,103.58113243570551 35.53762662038207,93.0 24.629602801054716,102.85139996791258 24.299056624993682,137.51356071513146 36.85981132462621,146.27027461491525 47.10674279183149,138.60815089056268 44.462373381480575,99.56760238902643 51.73438926041126,95.18920186813921 46.445650439709425,93.36486705159768 48.42892749607563,99.56760238902643 42.479096323251724,100.66220184927806 58.01476661115885,99.2027358431369 57.353674257174134,103.58113243570551 57.684220435097814,97.37840266479179 51.40384308248758,96.64866918511689 39.83472691103816,99.56760238902643 41.81800396926701,102.4865336897783 48.42892749607563,94.45946803083643 34.21544191427529,106.86492706788704 43.14018867537379,104.67573091480881 41.15691161900759,100.29733539326116 45.78455808572471,97.74326935969293 51.40384308248758,99.56760238902643 48.759473672136664,97.01353593915701" stroke="#4dd2ff" stroke-linecap="round" stroke-linejoin="round" stroke-width="0.5"><title>2021-11-23 4.3km</title></polyline><polyline fill="none" points="171.58657666109502,106.73688972508535 157.85433765500784,93.4736863928847 146.26776099577546,103.42109173210338 147.12602593190968,134.21057169511914 157.85433765500784,144.15790725499392 170.29917925409973,135.6316206753254 169.01178184896708,100.10529184574261 154.42127790488303,93.0 146.26776099577546,106.73688972508535 148.41342334076762,138.4737175917253 161.71652987599373,145.10527165792882 170.7283117249608,134.21057169511914 170.29917925409973,100.10529184574261 156.13780778087676,93.0 147.12602593190968,102.47372053004801 148.41342334076762,111.94742560433224 169.01178184896708,106.73688972508535 162.1456623468548,96.7894900655374 147.55515840277076,102.00003486964852 147.12602593190968,135.15793771995232 158.28347012586892,143.68422499578446 170.7283117249608,135.6316206753254 171.58657666109502,104.36846278002486 157.42520518787205,95.84211778221652 147.12602593190968,106.26320441393182 147.12602593190968,136.5789864687249 159.14173506386578,145.10527165792882 172.0157091319561,134.68425472686067 172.0157091319561,104.84214824717492 160.00000000186265,95.36843158118427 150.98821815289557,98.2105482025072 151.41735062375665,141.78949557198212 158.71260259486735,145.10527165792882 170.29917925409973,138.4737175917253 171.58657666109502,106.26320441393182 160.00000000186265,96.3158039432019 147.9842908717692,102.94740614993498 147.55515840277076,112.89479526085779 150.98821815289557,104.36846278002486 167.295251974836,104.84214824717492 167.72438444197178,104.84214824717492 159.5708675328642,93.0 147.12602593190968,102.94740614993498 146.26776099577546,133.7368886237964 158.28347012586892,143.68422499578446 170.29917925409973,136.1053035906516 172.0157091319561,102.94740614993498 157.85433765500784,95.36843158118427 147.12602593190968,104.84214824717492 147.12602593190968,132.31583918025717 156.13780778087676,143.21054269745946 169.4409143179655,138.94740027701482 172.4448415990919,106.26320441393182 157.42520518787205,95.36843158118427 147.55515840277076,104.36846278002486 147.9842908717692,137.05266930861399 156.99607271887362,145.57895380072296 169.4409143179655,138.94740027701482 172.87397406809032,108.15794542897493 166.86611950397491,96.7894900655374 157.85433765500784,94.42105906456709 147.9842908717692,100.10529184574261 148.41342334076762,112.89479526085779 155.70867531187832,101.05266343429685 167.295251974836,105.7895190641284 164.7204571608454,93.0 147.9842908717692,96.3158039432019 145.4094960577786,133.26320551522076 151.41735062375665,143.68422499578446 163.00392728485167,147.0 170.29917925409973,141.31581311905757 176.30703382007778,114.3158494583331 169.4409143179655,96.7894900655374 152.70474803075194,94.89474534150213 145.4094960577786,112.42111045168713 148.41342334076762,141.31581311905757 161.71652987599373,145.57895380072296 169.01178184896708,140.3684480986558 173.73223900794983,106.73688972508535 165.1495896279812,93.94737274665385 150.98821815289557,95.84211778221652 143.69296618178487,123.31585129303858 148.84255580976605,142.73686036048457 170.29917925409973,139.42108292179182 173.3031065389514,103.42109173210338 161.28739740885794,97.26317614968866" stroke="#4dd2ff" stroke-linecap="round" stroke-linejoin="round" stroke-width="0.5"><title>2021-11-16 3.7km</title></polyline><polyline fill="none" points="52.6462025269866,166.2245496660471 43.99353763833642,153.73469822341576 33.676898734644055,154.4693963257596 28.684976685792208,161.08167385542765 27.353797471150756,193.77557007269934 35.67366755567491,206.26531046675518 45.32471685111523,206.63265524851158 52.313407722860575,199.6530992789194 52.313407722860575,169.16333320597187 46.9886908698827,156.30614105798304 36.00646235793829,153.0 30.681745504960418,156.67348991381004 29.35056629218161,200.75513515155762 43.66074283607304,207.0 53.31179213151336,194.87760738283396 50.98222850821912,161.08167385542765 35.67366755567491,153.73469822341576 29.35056629218161,161.44902232196182 31.680129915475845,201.1224803822115 28.01938707754016,194.5102616432123 39.33441039174795,207.0 52.313407722860575,197.44902672525495 51.64781811647117,159.61227968754247 39.66720519401133,153.73469822341576 30.016155898571014,159.97962827421725 27.021002668887377,195.97964442428201 40.99838440865278,207.0 53.64458693563938,197.08168119518086 52.6462025269866,161.08167385542765 41.33117921277881,153.3673491263762 29.683361096307635,159.24493107013404 28.352181881666183,199.28575392859057 43.66074283607304,206.63265524851158 52.6462025269866,196.34699004422873 49.65104929730296,162.1837191665545 53.64458693563938,166.2245496660471 49.31825449317694,157.04083874076605 39.999999998137355,153.3673491263762 28.01938707754016,163.65311249531806 28.684976685792208,197.08168119518086 41.66397401690483,206.63265524851158 52.6462025269866,198.1837176969275 52.97899733111262,164.7551571764052 48.65266488492489,156.30614105798304 40.99838440865278,153.73469822341576 28.684976685792208,162.1837191665545 27.686592273414135,197.81637222599238 41.33117921277881,207.0 51.64781811647117,200.38778989110142 53.31179213151336,165.48985348129645 41.99676881916821,153.73469822341576 35.340872751548886,154.4693963257596 28.352181881666183,164.02046075137332 28.352181881666183,194.5102616432123 34.67528314515948,202.22451589396223 26.355413062497973,195.6122987740673 30.016155898571014,203.32655113795772 39.00161558948457,206.63265524851158 52.313407722860575,196.7143356348388 52.313407722860575,163.28576420713216 39.33441039174795,153.73469822341576 28.352181881666183,164.7551571764052 29.683361096307635,199.6530992789194 39.33441039174795,206.26531046675518 51.64781811647117,198.55106313712895 52.313407722860575,162.9184158896096 39.33441039174795,154.102047289256 28.684976685792208,162.9184158896096 29.017771488055587,200.02044459991157 44.65912724658847,205.1632759431377 52.97899733111262,195.97964442428201 52.313407722860575,163.65311249531806 44.326332442462444,157.77553630340844" stroke="#4dd2ff" stroke-linecap="round" stroke-linejoin="round" stroke-width="0.5"><title>2021-11-02 4.1km</title></polyline><polyline fill="none" points="171.66324854455888,165.51661550905555 162.26785388588905,154.07285415870138 151.576542718336,160.1523560951464 148.6607305817306,194.4835029253736 153.5204174760729,203.7814755947329 165.83162427321076,204.13908953382634 170.0433529149741,198.41726299957372 173.28314417786896,165.51661550905555 164.8596868943423,154.07285415870138 152.22450096905231,156.2185616865754 151.25256359018385,200.20533459354192 161.61989563144743,206.28477255930193 172.31120679713786,194.4835029253736 172.31120679713786,160.8675910627935 158.70408349484205,154.78809011727571 148.6607305817306,162.29806064767763 149.63266796059906,198.05964859272353 153.5204174760729,200.92056302679703 148.6607305817306,201.63579134386964 146.71685582213104,193.76827344158664 156.76020873710513,205.21193117741495 171.33926942013204,196.98680519871414 171.98722767271101,164.08614697353914 159.02806262113154,154.07285415870138 149.30868883430958,163.01329526631162 150.60460533946753,199.84772033267654 156.76020873710513,205.21193117741495 165.1836660206318,204.4967034435831 171.66324854455888,195.91396154183894 171.66324854455888,162.6556779711973 159.35204174928367,154.07285415870138 148.01277232915163,164.08614697353914 149.63266796059906,195.55634693149477 161.94387475773692,207.0 170.0433529149741,200.5629488241393 172.31120679713786,164.801381299505 168.74743640981615,161.22520850319415 172.95916505157948,164.44376415084116 158.38010436855257,153.35761808231473 149.9566470850259,161.22520850319415 149.63266796059906,198.05964859272353 160.32397912815213,204.8543173254002 171.01529029384255,191.98019922268577 171.01529029384255,164.801381299505 160.0,153.0 149.30868883430958,161.22520850319415 148.6607305817306,195.1987322922796 158.70408349484205,205.21193117741495 170.0433529149741,196.27157612377778 171.01529029384255,161.58282591425814 157.7321461159736,153.7152361345943 148.9847097080201,164.44376415084116 147.68879320286214,194.4835029253736 152.22450096905231,201.99340545851737 146.71685582213104,195.91396154183894 157.40816699154675,204.4967034435831 170.0433529149741,197.70203415770084 171.01529029384255,161.94044329528697 160.97193737886846,154.07285415870138 148.9847097080201,162.29806064767763 148.9847097080201,194.4835029253736 157.08418786339462,205.21193117741495 165.1836660206318,204.13908953382634 171.01529029384255,194.4835029253736 171.66324854455888,160.5099735937547 160.97193737886846,153.0 148.6607305817306,162.6556779711973 148.01277232915163,195.91396154183894 160.64795825257897,204.8543173254002 169.39539466053247,198.41726299957372 170.69131116755307,166.23184960149229 164.8596868943423,156.57617950649" stroke="#4dd2ff" stroke-linecap="round" stroke-linejoin="round" stroke-width="0.5"><title>2021-10-19 4.0km</title></polyline><polyline fill="none" points="54.67625142633915,221.77504795696586 52.841719998046756,216.71252256119624 39.388489523902535,213.0 27.158280001953244,224.47505896934308 26.546769523993134,255.86255768802948 30.82734285853803,263.6250206476543 40.917265713214874,267.0 47.643880950286984,263.2875225613825 52.535964760929346,251.13757310505025 51.92445428483188,221.77504795696586 45.197839045897126,215.0250127185136 34.190650476142764,215.70001673861407 25.32374857366085,229.87507570744492 27.158280001953244,258.90004492900334 43.05755237862468,265.9875064836815 52.535964760929346,254.1750638145022 52.841719998046756,223.12505368422717 39.082734286785126,214.68751066783443 29.604321906343102,219.41253687627614 26.241014286875725,227.85007025720552 27.464035239070654,258.5625464573968 42.44604190438986,265.31251066783443 50.39567809179425,258.90004492900334 48.56114666350186,222.78755229362287 51.31294380687177,227.17506821989082 41.22302095219493,216.03751870663837 28.07554571516812,224.47505896934308 28.687056193128228,254.1750638145022 39.082734286785126,263.96251870621927 50.39567809179425,256.8750536828302 51.92445428483188,227.51256925193593 42.14028666727245,216.03751870663837 31.74460857361555,218.73753346316516 27.158280001953244,227.51256925193593 27.76979047805071,252.82506821863353 32.661874286830425,261.93752993945964 39.999999998137355,264.30001673847437 51.00718856975436,255.18756022164598 51.00718856975436,222.78755229362287 39.388489523902535,216.37502064811997 27.464035239070654,223.80005638161674 30.521587619557977,258.5625464573968 28.381300954148173,255.86255768802948 32.967629523947835,262.9500244464725 42.75179714150727,265.65000858996063 50.08992285653949,258.5625464573968 49.78416761755943,225.48756264522672 41.22302095219493,216.71252256119624 30.82734285853803,219.7500385423191 28.07554571516812,225.82506381487474 29.298566667363048,253.50006607128307 42.44604190438986,264.97501271846704 50.70143333077431,255.86255768802948 50.08992285653949,224.81256022281013 37.55395809561014,215.70001673861407 28.381300954148173,227.17506821989082 30.82734285853803,257.8875494294334 41.528776191174984,265.31251066783443 49.78416761755943,260.58753687608987 52.535964760929346,226.50006607244723 44.28057333268225,217.38752630422823 30.215832382440567,220.4250417908188 28.07554571516812,253.50006607128307 35.41367142833769,264.63751474232413 49.17265714146197,261.26253346260637 49.78416761755943,222.78755229362287 41.834531428292394,216.37502064811997 29.298566667363048,221.10004492942244 29.298566667363048,254.85006144666113 40.30575523711741,264.97501271846704 50.70143333077431,256.8750536828302 49.78416761755943,223.80005638161674 43.36330761760473,216.37502064811997 33.27338476292789,217.05002444633283 29.298566667363048,221.77504795696586 29.298566667363048,253.16256715892814" stroke="#4dd2ff" stroke-linecap="round" stroke-linejoin="round" stroke-width="0.5"><title>2021-10-05 4.3km</title></polyline><polyline fill="none" points="168.77697317488492,214.90589510137215 161.294963253662,213.0 150.07194837369025,219.9882774767466 146.0431738011539,253.02360123489052 150.35971798561513,260.3294523016084 158.70503674261272,263.18825985724106 171.3668996859342,253.02360123489052 173.66905658505857,223.80005990620703 162.7338113170117,215.5411932610441 153.52518372051418,218.08238486386836 148.92086992412806,225.3883014828898 147.48202186264098,253.97653910843655 156.97841906920075,263.50590501143597 168.77697317488492,259.05887049180456 171.94243890978396,249.52949370676652 169.06474278867245,224.11770827323198 171.65466929972172,227.29419052088633 163.0215809289366,216.81178926909342 150.64748759754002,224.11770827323198 149.78417876176536,257.15299700014293 158.12949751876295,262.87061467650346 169.06474278867245,255.56476837815717 171.65466929972172,226.023597933352 168.77697317488492,220.30592615553178 159.28057596832514,216.81178926909342 150.35971798561513,225.07065321947448 148.34533069841564,253.34124721889384 156.40287984348834,262.23532423889264 165.03596821427345,260.3294523016084 169.64028201252222,253.02360123489052 171.0791300740093,226.34124611853622 165.03596821427345,217.7647360037081 150.9352572094649,222.21181768015958 148.92086992412806,256.2000599044841 156.11511023156345,262.55296947062016 169.06474278867245,256.2000599044841 170.50359084829688,226.97654241300188 166.47481627762318,223.48241151263937 171.65466929972172,224.11770827323198 162.1582720912993,217.1294382067863 150.64748759754002,223.16476309276186 148.34533069841564,251.43537092860788 157.26618868112564,263.18825985724106 169.64028201252222,253.97653910843655 170.50359084829688,224.7530049304478 158.70503674261272,217.7647360037081 149.78417876176536,225.07065321947448 149.20863953605294,254.6118308941368 152.374105270952,260.3294523016084 161.0071936417371,262.87061467650346 169.35251240059733,253.97653910843655 169.35251240059733,224.11770827323198 159.56834558025002,217.1294382067863 149.20863953605294,226.6588942790404 148.34533069841564,253.65889317682013 157.55395829491317,262.87061467650346 169.64028201252222,253.65889317682013 170.50359084829688,227.29419052088633 166.47481627762318,224.4353566148784 172.2302085235715,223.80005990620703 171.3668996859342,227.9294866595883 167.33812511339784,219.9882774767466 159.8561151921749,217.7647360037081 148.92086992412806,226.023597933352 148.34533069841564,255.88241415470839 158.99280635640025,263.18825985724106 170.215821236372,252.7059552257415 170.215821236372,223.80005990620703 156.69064945727587,218.08238486386836 149.78417876176536,225.07065321947448 148.34533069841564,253.65889317682013 160.14388480596244,257.15299700014293 171.94243890978396,235.55303223920055 175.39567425847054,244.12950317701325 170.50359084829688,263.18825985724106 162.7338113170117,266.68235513102263 150.07194837369025,262.55296947062016 144.60432573966682,255.24712257552892 148.92086992412806,222.5294661775697 154.38849256001413,215.5411932610441 164.46042899042368,213.6352984707337 174.24459580890834,225.07065321947448 170.215821236372,260.9647430512123 156.40287984348834,267.0 146.0431738011539,257.4706426472403 146.0431738011539,226.6588942790404 160.43165441602468,213.31764924852178 172.80574774742126,220.94122343347408" stroke="#4dd2ff" stroke-linecap="round" stroke-linejoin="round" stroke-width="0.5"><title>2021-05-11 4.8km</title></polyline></svg>