<?xml version="1.0" encoding="utf-8" ?>
<svg baseProfile="full" height="200mm" version="1.1" viewBox="0,0,200,200" width="200mm" xmlns="http://www.w3.org/2000/svg" xmlns:ev="http://www.w3.org/2001/xml-events" xmlns:xlink="http://www.w3.org/1999/xlink"><defs /><rect fill="#1a1a1a" height="200" width="200" x="0" y="0" /><text alignment-baseline="middle" fill="#e1ed5e" style="dominant-baseline: central; font-size:9.0px; font-family:Arial;" text-anchor="middle" x="100.0" y="100.0">2021</text><line stroke="#e1ed5e" stroke-width="0.3" x1="100.0" x2="100.0" y1="15.0" y2="10.0" /><path d="M 100.0 14.0 a86.0,86.0 0 0,1 42.46469731375804,11.215312516191453" fill="none" id="id25" stroke="none" /><text fill="#e1ed5e" style="font-size:6.75px; font-family:Arial;" text-anchor="middle"><textPath startOffset="22.20632615414155" xlink:href="#id25">January</textPath></text><path d="M 100.72285384407766 79.0124445844662 l 1.4236408905754647 -41.33441680855529 a62.35892607755545,62.35892607755545 0 0,0 1.0724522778697683,0.046182051048365 l -2.1349340008345643 41.30378703098273" fill="#30ff34" stroke="none" /><path d="M 103.2404852339499 79.25152402106235 l 9.35288681271378 -59.88552125904073 a81.61148528289382,81.61148528289382 0 0,0 1.386115868763583,0.22872099504505353 l -10.382331887616239 59.71565400105605" fill="#4aeaff" stroke="none" /><path d="M 105.71112130821622 79.79150937346287 l 8.903979340886687 -31.5062442799677 a53.74025468337005,53.74025468337005 0 0,0 0.8880187655792293,0.2592370287504694 l -9.444988324189344 31.348308922298525" fill="#8bff24" stroke="none" /><path d="M 108.09893153111575 80.62456947434976 l 23.89499850056898 -57.16505709173579 a82.95816899847514,82.95816899847514 0 0,0 1.3127784277223442,0.5620632116402674 l -24.87546068608164 56.74527435213273" fill="#4cdcff" stroke="none" /><path d="M 110.36928655335952 81.73862282372117 l 14.645542103868392 -25.792301807221552 a50.660322588114006,50.660322588114006 0 0,0 0.7546054495201237,0.4371161827735821 l -15.087344285853844 25.53638146705792" fill="#b0ff20" stroke="none" /><line stroke="#e1ed5e" stroke-width="0.3" x1="143.23703022742887" x2="145.7803849466894" y1="26.81831364943548" y2="22.513508569990506" /><path d="M 143.74570117128098 25.957352633546492 a86.0,86.0 0 0,1 28.547481713284135,27.462654790039103" fill="none" id="id26" stroke="none" /><text fill="#e1ed5e" style="font-size:6.75px; font-family:Arial;" text-anchor="middle"><textPath startOffset="19.985693538727396" xlink:href="#id26">February</textPath></text><path d="M 111.2981086023043 82.29822771554956 l 9.645736283651743 -15.112850585826374 a38.92870551052887,38.92870551052887 0 0,0 0.5617467339630212,0.365375701771531 l -9.904450043399045 14.944575959895314" fill="#ffb410" stroke="none" /><path d="M 113.34407831869373 83.78471172551755 l 14.255789529681879 -17.32316996973149 a43.434788898378216,43.434788898378216 0 0,0 0.5732202084265392,0.4800554396265413 l -14.551867275067535 17.07521337271113" fill="#fff216" stroke="none" /><path d="M 114.42810811169701 84.74124197986012 l 31.491351091562414 -33.30435995581828 a66.83541846256846,66.83541846256846 0 0,0 0.8291307823654777,0.7976231557161315 l -32.05996511754031 32.757353713339846" fill="#36ff6d" stroke="none" /><path d="M 114.94478906791727 85.2469230424477 l 37.25789656573269 -36.779951380563766 a73.35375516674492,73.35375516674492 0 0,0 0.8793219793829714,0.906218594338306 l -37.88548280881877 36.133168590675346" fill="#3fffbb" stroke="none" /><path d="M 116.15771136456269 86.58626213691792 l 27.1567220459232 -22.54484824772426 a56.295293380172474,56.295293380172474 0 0,0 0.6125504488747795,0.7509144215401236 l -27.54077098687439 22.074049656576037" fill="#6eff28" stroke="none" /><path d="M 116.82858285166822 87.43820079747576 l 20.55063692636834 -15.34014936542494 a46.64466534453045,46.64466534453045 0 0,0 0.4747480433769585,0.6475557976335892 l -20.811647582258924 14.984131124119857" fill="#e2ff1b" stroke="none" /><path d="M 117.65298651832404 88.62581576622439 l 34.59315737572927 -22.289086597959628 a62.152034197513444,62.152034197513444 0 0,0 0.5717170401970113,0.904319059447492 l -34.97170201217224 21.69031989079793" fill="#30ff31" stroke="none" /><line stroke="#e1ed5e" stroke-width="0.3" x1="172.23445277983987" x2="176.4835382374775" y1="55.19839476539836" y2="52.563006222186495" /><path d="M 173.08426987136738 54.67131705675599 a86.0,86.0 0 0,1 12.851231095245387,41.99856678651699" fill="none" id="id27" stroke="none" /><text fill="#e1ed5e" style="font-size:6.75px; font-family:Arial;" text-anchor="middle"><textPath startOffset="22.20632615414155" xlink:href="#id27">March</textPath></text><path d="M 117.84615892207809 88.93136811851018 l 15.173802964294474 -9.411170212445766 a38.85537513374777,38.85537513374777 0 0,0 0.3476338637758812,0.5714186678775962 l -15.333552626356578 9.148583771361087" fill="#ffb310" stroke="none" /><path d="M 118.89224826269711 90.83032412892265 l 26.466750723896173 -12.846090212456383 a50.41956708769567,50.41956708769567 0 0,0 0.37224479747586103,0.7840424777432197 l -26.68395371521379 12.388605319072624" fill="#b3ff20" stroke="none" /><path d="M 119.85752413597 93.16781622104841 l 37.11674414653164 -12.770394513890002 a60.25220595176126,60.25220595176126 0 0,0 0.3289848090785528,0.9836227051679999 l -37.331066249381955 12.129598705799689" fill="#42ff2d" stroke="none" /><path d="M 120.53481517161879 95.60439243477599 l 35.80921926601566 -7.665190740455821 a57.620422355963576,57.620422355963576 0 0,0 0.1992588400554918,0.9716568694472704 l -35.93585740198615 7.047658214845139" fill="#5fff29" stroke="none" /><path d="M 120.91429891909075 98.10471618934814 l 27.83469972499464 -2.522420472578372 a48.94875871700028,48.94875871700028 0 0,0 0.06882082702449711,0.8397884064614339 l -27.873995035838632 2.0429181489091692" fill="#c5ff1e" stroke="none" /><line stroke="#e1ed5e" stroke-width="0.3" x1="184.98032266829074" x2="189.97916517819016" y1="98.17113171792111" y2="98.06355123074" /><path d="M 185.9800911702706 98.14961562048488 a86.0,86.0 0 0,1 -9.607161424134198,41.387399972396054" fill="none" id="id28" stroke="none" /><text fill="#e1ed5e" style="font-size:6.75px; font-family:Arial;" text-anchor="middle"><textPath startOffset="21.466115282336823" xlink:href="#id28">April</textPath></text><path d="M 120.99824983174949 100.27111621757518 l 29.975049825143184 0.38701902279174133 a50.97754819433736,50.97754819433736 0 0,0 -0.01888096068226511,0.8773240515944649 l -29.96394680177591 -0.9029328901763212" fill="#acff20" stroke="none" /><path d="M 120.9764740272857 100.99374915477107 l 24.746700678257834 1.172361610936258 a45.77445511421157,45.77445511421157 0 0,0 -0.0440604178092006,0.7867283580977898 l -24.722853909561106 -1.5981616853694711" fill="#eeff19" stroke="none" /><path d="M 120.95626037817324 101.35467743843564 l 8.673471210474963 0.5606799853464948 a29.69157436169686,29.69157436169686 0 0,0 -0.03735969396713107,0.5097433417664514 l -8.662534957843492 -0.7098964636097165" fill="#ff2c04" stroke="none" /><path d="M 120.81339534386255 102.79330883721812 l 27.358967294388375 3.671772137990533 a48.60425695520052,48.60425695520052 0 0,0 -0.11842299674979948,0.8282501634498185 l -27.291710246621975 -4.142167773420761" fill="#c9ff1d" stroke="none" /><path d="M 120.64145759157962 103.86396538481128 l 16.63249436355742 3.113509896223197 a37.921401024372926,37.921401024372926 0 0,0 -0.12562830528201638,0.6405760220832317 l -16.57643612529974 -3.399349645374374" fill="#ffa60f" stroke="none" /><path d="M 120.41448212921028 104.9243191809786 l 16.17640517009044 3.90202316934499 a37.640368657004984,37.640368657004984 0 0,0 -0.15735230923085014,0.6285442572776417 l -16.106841546564528 -4.1798952660200275" fill="#ffa20f" stroke="none" /><path d="M 120.23288151984713 105.62410040840565 l 48.58031345830869 13.503788894000955 a71.42220909679853,71.42220909679853 0 0,0 -0.33945058846290976,1.1816720301729184 l -48.34067023295968 -14.338018399678456" fill="#3cffa5" stroke="none" /><path d="M 120.02730092923936 106.31721596034902 l 14.122990197803947 4.454817920829453 a35.80892483723952,35.80892483723952 0 0,0 -0.19048258986173483,0.5862451309359713 l -14.044215356925966 -4.6972619517432195" fill="#ff880c" stroke="none" /><path d="M 119.67450827220406 107.3425965602758 l 17.501336184896292 6.531560997282999 a39.68041908839277,39.68041908839277 0 0,0 -0.24432881791696154,0.6378654448774126 l -17.386313087385826 -6.831850008993555" fill="#ffbf11" stroke="none" /><path d="M 119.41010516605496 108.01547362559984 l 35.48622156029629 14.654164444517454 a59.39292195435764,59.39292195435764 0 0,0 -0.3983540372091927,0.9415912720822405 l -35.22871654189479 -15.262830242265858" fill="#4bff2c" stroke="none" /><path d="M 119.12269723197855 108.67885076344098 l 14.773339938545265 6.704891629503189 a37.22366002797145,37.22366002797145 0 0,0 -0.2698279004943718,0.5811852926479505 l -14.655737421211061 -6.95819698942997" fill="#ff9c0e" stroke="none" /><path d="M 118.81262510543309 109.33194174019688 l 15.120640513285982 7.500544743417774 a37.878742280751766,37.878742280751766 0 0,0 -0.2947711643020737,0.5816114721155946 l -14.989290679197639 -7.759710427236063" fill="#ffa50f" stroke="none" /><path d="M 118.64920377521936 109.65438752849418 l 5.217475544082579 2.701001685120027 a26.875156266527814,26.875156266527814 0 0,0 -0.2162138210616153,0.4089950671426702 l -5.170209214796071 -2.790411767348832" fill="#ff0000" stroke="none" /><line stroke="#e1ed5e" stroke-width="0.3" x1="174.80103733775053" x2="179.2010983576182" y1="140.37084112569926" y2="142.7455964860345" /><path d="M 175.68104954172406 140.8457921977663 a86.0,86.0 0 0,1 -30.038265399797805,32.042727171017184" fill="none" id="id29" stroke="none" /><text fill="#e1ed5e" style="font-size:6.75px; font-family:Arial;" text-anchor="middle"><textPath startOffset="22.206326154141568" xlink:href="#id29">May</textPath></text><path d="M 118.30583269289576 110.29060199501025 l 51.04796136940463 28.696550543317723 a79.56096287679546,79.56096287679546 0 0,0 -0.681375255123157,1.1880351905983995 l -50.54643411812909 -29.571005579774436" fill="#47ffff" stroke="none" /><path d="M 117.94076556474637 110.91462005526583 l 11.861977198623467 7.216468759928973 a34.884665081437646,34.884665081437646 0 0,0 -0.3165124872073407,0.5103189091481611 l -11.736000071748165 -7.419584000442407" fill="#ff7a0b" stroke="none" /><path d="M 117.35343817320211 111.8261652097733 l 17.735789652767505 12.086733272448296 a42.46269684374551,42.46269684374551 0 0,0 -0.4168200860389963,0.6004604218501854 l -17.525108659566374 -12.3902349564855" fill="#ffe515" stroke="none" /><path d="M 116.93607887273984 112.41649034213515 l 28.878561249416514 21.171983169332655 a56.80815788558253,56.80815788558253 0 0,0 -0.5849582905982659,0.7836472227740288 l -28.509841692123157 -21.665943271616" fill="#68ff28" stroke="none" /><path d="M 116.498646956653 112.99209946851258 l 18.295846692775108 14.407330535510306 a44.287532702392014,44.287532702392014 0 0,0 -0.47679132682360587,0.5948704902303715 l -18.045137453896647 -14.720128859318928" fill="#fffd17" stroke="none" /><path d="M 115.32070863581623 114.36230785411682 l 22.61488067774919 21.20018636857574 a51.99807623274674,51.99807623274674 0 0,0 -0.6177704457603564,0.6477298425660393 l -22.246603680609873 -21.586323327724287" fill="#a0ff22" stroke="none" /><line stroke="#e1ed5e" stroke-width="0.3" x1="143.8653032363475" x2="146.44561519142675" y1="172.8068346515853" y2="177.08958963109032" /><path d="M 144.38136562736335 173.6633856474863 a86.0,86.0 0 0,1 -40.68145358897372,12.25698825130547" fill="none" id="id30" stroke="none" /><text fill="#e1ed5e" style="font-size:6.75px; font-family:Arial;" text-anchor="middle"><textPath startOffset="21.466115282336833" xlink:href="#id30">June</textPath></text><path d="M 104.48393922423573 120.51570834832081 l 3.5643068549953196 16.308044387793494 a37.693010366941294,37.693010366941294 0 0,0 -0.6350528053454668,0.13308148986291327 l -3.2830625882204747 -16.36698185838295" fill="#ffa30f" stroke="none" /><line stroke="#e1ed5e" stroke-width="0.3" x1="102.19456741930631" x2="102.32365962044197" y1="184.97166512339345" y2="189.96999836594603" /><path d="M 102.22038585953345 185.97133177190398 a86.0,86.0 0 0,1 -42.740103519485714,-10.115201625700543" fill="none" id="id31" stroke="none" /><text fill="#e1ed5e" style="font-size:6.75px; font-family:Arial;" text-anchor="middle"><textPath startOffset="22.20632615414155" xlink:href="#id31">July</textPath></text><path d="M 97.2962882734958 120.8252237178851 l -1.1043668081983196 8.506338017431025 a29.577727701078096,29.577727701078096 0 0,0 -0.5043304108293966,-0.06989559947178176 l 1.250625810214547 -8.486067852466638" fill="#ff2a04" stroke="none" /><path d="M 96.93821686468263 120.77559828337769 l -4.294338740384092 29.139051533027146 a50.45378871149814,50.45378871149814 0 0,0 -0.8581087558485991,-0.1340189397656597 l 4.795283359841208 -29.060814285914383" fill="#b3ff20" stroke="none" /><path d="M 94.81253420990036 120.34920634021253 l -7.242975536711372 28.41248688231258 a50.32115457247521,50.32115457247521 0 0,0 -0.8375106881828768,-0.22119418476529 l 7.730976667705738 -28.28360134824371" fill="#b4ff20" stroke="none" /><path d="M 90.10565033884886 118.52300852407294 l -11.713599383013896 21.92878851563639 a45.86121831828139,45.86121831828139 0 0,0 -0.6931097387683115,-0.3779386929364221 l 12.089331933650849 -21.723909170940203" fill="#ecff1a" stroke="none" /><line stroke="#e1ed5e" stroke-width="0.3" x1="58.666819895761336" x2="56.23545636021788" y1="174.27360380694188" y2="178.64263932499728" /><path d="M 58.180547188652646 175.14741091055294 a86.0,86.0 0 0,1 -31.652253787137756,-30.449443065178592" fill="none" id="id32" stroke="none" /><text fill="#e1ed5e" style="font-size:6.75px; font-family:Arial;" text-anchor="middle"><textPath startOffset="22.20632615414155" xlink:href="#id32">August</textPath></text><path d="M 87.07902340077011 116.55440617244103 l -9.314570604974616 11.933864590840606 a36.13863764106851,36.13863764106851 0 0,0 -0.4870843146527091,-0.3869692380730445 l 9.518612412344682 -11.771761438762432" fill="#ff8c0c" stroke="none" /><path d="M 85.70375840098266 115.38237550388516 l -13.33141230650645 14.344244861523155 a40.5827453318835,40.5827453318835 0 0,0 -0.5076015686061499,-0.4799689660095537 l 13.576349709503418 -14.11264125876767" fill="#ffcb12" stroke="none" /><path d="M 85.18274418774928 114.88116024355367 l -11.25644129507943 11.304988508448195 a36.953376940501194,36.953376940501194 0 0,0 -0.4468884052331883,-0.4526955951171254 l 11.44937032536815 -11.109552419350404" fill="#ff980e" stroke="none" /><path d="M 83.95833913139862 113.55231037782056 l -19.815214277494643 16.74028246147819 a46.93992624802742,46.93992624802742 0 0,0 -0.5161246064462818,-0.621705337038053 l 20.10043488383446 -16.396715867326378" fill="#dfff1b" stroke="none" /><path d="M 82.44556493220864 111.52570212397912 l -19.806800195155446 13.004535788075085 a44.6944568419311,44.6944568419311 0 0,0 -0.4167122516026017,-0.6467466684526619 l 20.027717310135092 -12.661667519700975" fill="#fcff18" stroke="none" /><line stroke="#e1ed5e" stroke-width="0.3" x1="26.63291911575756" x2="22.317208475507996" y1="142.92168965132927" y2="145.44649492493687" /><path d="M 25.769776987707644 143.4266507060508 a86.0,86.0 0 0,1 -11.730757126820373,-40.83630448921669" fill="none" id="id33" stroke="none" /><text fill="#e1ed5e" style="font-size:6.75px; font-family:Arial;" text-anchor="middle"><textPath startOffset="21.46611528233685" xlink:href="#id33">September</textPath></text><path d="M 79.35854240842038 103.8639653848113 l -9.569764031544763 1.7914062897275949 a30.735990967247425,30.735990967247425 0 0,0 -0.09287180833820997,-0.5208744220417464 l 9.599182282222161 -1.6264131169526348" fill="#ff3c05" stroke="none" /><path d="M 79.10278846688536 102.07522291339032 l -29.316729828334555 2.911333380007442 a50.46093192478993,50.46093192478993 0 0,0 -0.07839563220387093,-0.8650892687670572 l 29.362500056815502 -2.4062627226918187" fill="#b2ff20" stroke="none" /><line stroke="#e1ed5e" stroke-width="0.3" x1="15.007084014347285" x2="10.007500721073583" y1="101.09737516637583" y2="101.16192664675087" /><path d="M 14.007167355692545 101.11028546245083 a86.0,86.0 0 0,1 10.666146001902534,-42.60595125391555" fill="none" id="id34" stroke="none" /><text fill="#e1ed5e" style="font-size:6.75px; font-family:Arial;" text-anchor="middle"><textPath startOffset="22.20632615414155" xlink:href="#id34">October</textPath></text><path d="M 79.00019446554 99.90962569577889 l -29.904730783601195 -0.12869734593746424 a50.90500771186184,50.90500771186184 0 0,0 0.011313014698280676,-0.8762054557614339 l 29.898084761785196 0.6434390597593701" fill="#adff20" stroke="none" /><path d="M 79.03285615573316 98.82574320788736 l -25.180299749136967 -1.4102129611678782 a46.219758049042284,46.219758049042284 0 0,0 0.05132464007727062,-0.7939694651719478 l 25.152294518055285 1.8434414905928378" fill="#e8ff1a" stroke="none" /><path d="M 79.21141760316559 97.0276538004421 l -14.99530923827756 -2.1440254835450885 a36.14780988874838,36.14780988874838 0 0,0 0.0933716976924339,-0.6152028256819325 l 14.956181647145824 2.4018274216191133" fill="#ff8d0c" stroke="none" /><path d="M 79.32604984820605 96.31383870115002 l -16.71815787442608 -2.9808443036913324 a37.98182073504145,37.98182073504145 0 0,0 0.12030158622746143,-0.64265588404985 l 16.664370564288756 3.2681782652037548" fill="#ffa70f" stroke="none" /><path d="M 79.71946130924805 94.55025226153421 l -28.820341584715784 -7.744547310507993 a50.84275627525706,50.84275627525706 0 0,0 0.23439292515786014,-0.8432360625570314 l 28.682761888991564 8.239494676483968" fill="#aeff20" stroke="none" /><path d="M 79.91906864156998 93.8553929516997 l -11.427190483695462 -3.4966304069810312 a32.950192741277625,32.950192741277625 0 0,0 0.17062632235212746,-0.5409320697034775 l 11.36530867757513 3.692812643110923" fill="#ff5e08" stroke="none" /><path d="M 81.6062741919709 89.86733742301443 l -26.418379067831864 -14.553251675002636 a51.16169568985842,51.16169568985842 0 0,0 0.4315668309514478,-0.767709236741564 l 26.163954595587985 15.005844421678987" fill="#aaff21" stroke="none" /><line stroke="#e1ed5e" stroke-width="0.3" x1="26.266209847984243" x2="21.928928074336255" y1="57.711370442889674" y2="55.22380399835377" /><path d="M 25.398753493254645 57.213857153982495 a86.0,86.0 0 0,1 29.58750427330803,-30.492523968695096" fill="none" id="id35" stroke="none" /><text fill="#e1ed5e" style="font-size:6.75px; font-family:Arial;" text-anchor="middle"><textPath startOffset="21.46611528233685" xlink:href="#id35">November</textPath></text><path d="M 81.96595687620814 89.24020034530311 l -31.880755687420663 -19.02127779568372 a58.12400291161468,58.12400291161468 0 0,0 0.520027708926587,-0.854788821395831 l 31.548612180207858 19.567234390286625" fill="#59ff2a" stroke="none" /><path d="M 82.95767976084542 87.72973835380427 l -35.498852085509355 -25.558738312407673 a64.74262913350097,64.74262913350097 0 0,0 0.6589485909520583,-0.8988051375172943 l 35.053640882043666 26.166005893596466" fill="#33ff53" stroke="none" /><path d="M 83.39014120810768 87.1503855733568 l -12.753808337969588 -9.866520942020951 a37.12475930428112,37.12475930428112 0 0,0 0.39537147273016565,-0.5020816197656286 l 12.58208278464545 10.084594955739627" fill="#ff9b0e" stroke="none" /><path d="M 85.05521093208273 85.24692304244772 l -21.08044336667882 -20.810022936729002 a50.62164997367534,50.62164997367534 0 0,0 0.6174978314150902,-0.6148460994868292 l 20.71910973509642 21.16980488686594" fill="#b0ff20" stroke="none" /><path d="M 86.37877921826538 84.01681056812374 l -25.43821110632797 -29.849288359359623 a60.218396191714795,60.218396191714795 0 0,0 0.7947178400449508,-0.6655533361760886 l 24.92063572932391 30.282742852929523" fill="#42ff2d" stroke="none" /><path d="M 86.93701828274178 83.55741782278169 l -22.175642792953248 -27.91283313778559 a56.64947947808664,56.64947947808664 0 0,0 0.7687265437342334,-0.6000032607229558 l 21.691883694059587 28.290414787731766" fill="#6aff28" stroke="none" /><path d="M 89.00827224532344 82.1063720568725 l -19.14689967196206 -31.169576488893 a57.580681589400875,57.580681589400875 0 0,0 0.8490077749105494,-0.5115176847707806 l 18.60752983083386 31.4945407831224" fill="#5fff29" stroke="none" /><line stroke="#e1ed5e" stroke-width="0.3" x1="56.762969772571076" x2="54.21961505331055" y1="26.818313649435495" y2="22.513508569990535" /><path d="M 56.25429882871897 25.957352633546506 a86.0,86.0 0 0,1 42.265352541879196,-11.944610805530505" fill="none" id="id36" stroke="none" /><text fill="#e1ed5e" style="font-size:6.75px; font-family:Arial;" text-anchor="middle"><textPath startOffset="22.20632615414155" xlink:href="#id36">December</textPath></text><path d="M 90.58718382345135 81.22770947309562 l -15.894741167921374 -31.699407856021015 a56.461179551977416,56.461179551977416 0 0,0 0.8725369077666703,-0.42815007125491783 l 15.346732993144277 31.968313087410763" fill="#6cff28" stroke="none" /><path d="M 91.23893434514133 80.91482961587045 l -6.604847063827245 -14.38804781748827 a36.83161156467895,36.83161156467895 0 0,0 0.5784630523674793,-0.2595395098040372 l 6.356201892992992 14.499607657808834" fill="#ff960d" stroke="none" /><path d="M 92.91201910852362 80.23233633223022 l -9.987047126312936 -27.85286693768151 a50.58924309527683,50.58924309527683 0 0,0 0.8222390032969128,-0.28686304316424954 l 9.506126118952738 28.02065083401797" fill="#b1ff20" stroke="none" /><path d="M 93.59665428221793 80.00007090966166 l -11.322879801606447 -35.36538602026175 a58.133786978488374,58.133786978488374 0 0,0 0.9556492192710836,-0.2969248642895559 l 10.712445209624635 35.55505101943383" fill="#59ff2a" stroke="none" /><path d="M 95.33964822691252 79.52364482259891 l -13.98105531926245 -61.42906553220327 a84.0,84.0 0 0,0 1.4126291033859162,-0.30874600761652715 l 12.921583491723013 61.66062503791566" fill="#4dd2ff" stroke="none" /><path d="M 97.83486435360386 79.11191278185805 l -1.844333841497986 -17.793160536941272 a38.888491529814885,38.888491529814885 0 0,0 0.666428140330693,-0.06328538203130653 l 1.5377805740770565 17.82227146348776" fill="#ffb410" stroke="none" /><path d="M 98.55514903715128 79.0497635885617 l -1.2699734149989794 -18.414524379741238 a39.45826483196318,39.45826483196318 0 0,0 0.6780018780147214,-0.040898924824660544 l 0.952809488144635 18.433656573946205" fill="#ffbc11" stroke="none" /></svg>