<?xml version="1.0" encoding="utf-8" ?>
<svg baseProfile="full" height="300mm" version="1.1" viewBox="0,0,200,300" width="200mm" xmlns="http://www.w3.org/2000/svg" xmlns:ev="http://www.w3.org/2001/xml-events" xmlns:xlink="http://www.w3.org/1999/xlink"><defs /><rect fill="#222222" height="300" width="200" x="0" y="0" /><text fill="#FFFFFF" style="font-size:12px; font-family:Arial; font-weight:bold;" x="10" y="20">Running</text><text fill="#FFFFFF" style="font-size:4px; font-family:Arial" x="10" y="280">ATHLETE</text><text fill="#FFFFFF" style="font-size:9px; font-family:Arial" x="10" y="290">GanNaSong</text><text fill="#FFFFFF" style="font-size:4px; font-family:Arial" x="120" y="280">STATISTICS</text><text fill="#FFFFFF" style="font-size:3px; font-family:Arial" x="120" y="285">Number: 8</text><text fill="#FFFFFF" style="font-size:3px; font-family:Arial" x="120" y="290">Weekly: 1.0</text><text fill="#FFFFFF" style="font-size:3px; font-family:Arial" x="141" y="285">Total: 37.0 km</text><text fill="#FFFFFF" style="font-size:3px; font-family:Arial" x="141" y="290">Avg: 4.6 km</text><text fill="#FFFFFF" style="font-size:3px; font-family:Arial" x="167" y="285">Min: 3.7 km</text><text fill="#FFFFFF" style="font-size:3px; font-family:Arial" x="167" y="290">Max: 6.5 km</text><polyline fill="none" points="48.10052904486656,43.16888301074505 41.11183731816709,34.40260598366149 28.087457286193967,40.363676307257265 26.18145045079291,79.63640357973054 36.02915242686868,87.0 51.91254271380603,79.63640357973054 51.91254271380603,44.92213627160527 39.20583048462868,33.0 28.722792895510793,40.714327245019376 28.087457286193967,76.83122067339718 39.20583048462868,86.2987056474667 50.006535878404975,80.68834669794887 51.594874907284975,46.32473836559802 39.523498291149735,34.05195453041233 33.170142175629735,34.05195453041233 27.76978947967291,41.41562903649174 26.18145045079291,73.67538771475665 36.66448803991079,85.94805842707865 51.27720710262656,78.23381235497072 51.594874907284975,42.11693071271293 40.476501708850265,33.701303048757836 29.35812850855291,37.909118939889595 28.722792895510793,78.93510802579112 42.70017634704709,86.2987056474667 51.594874907284975,72.97409118735231 51.594874907284975,43.8701844017487 40.476501708850265,34.05195453041233 29.99346411973238,38.9610722695943 28.722792895510793,72.62344288104214 36.346820233389735,86.2987056474667 49.68886807188392,79.63640357973054 51.27720710262656,45.974087884416804 46.51219001598656,41.06497815507464 53.818549547344446,42.467581507284194 53.818549547344446,47.02603924041614 51.27720710262656,39.311723322141916 38.570494873449206,33.701303048757836 29.35812850855291,40.714327245019376 29.35812850855291,77.18186863698065 39.20583048462868,86.64935283828527 51.91254271380603,75.42862853384577 51.91254271380603,45.974087884416804 44.28851537592709,35.10390880424529 29.99346411973238,38.25977007811889 28.087457286193967,77.53251657146029 36.66448803991079,86.2987056474667 50.959539296105504,76.48057268117554 50.64187149144709,44.571485677035525 39.523498291149735,34.05195453041233 29.04046070203185,38.9610722695943 27.76978947967291,74.37668412853964 34.758481204509735,84.1948218990583 41.42950512468815,85.59741117805243 52.230210518464446,74.37668412853964 50.959539296105504,41.76627988833934 38.25282706692815,34.40260598366149 28.087457286193967,41.06497815507464 27.76978947967291,77.88316447776742 36.02915242686868,84.89611659594811 45.87685440480709,83.49352708784863 51.594874907284975,75.07798042683862 52.230210518464446,46.67538881697692 42.70017634704709,34.40260598366149 30.62879973091185,38.25977007811889 29.04046070203185,75.07798042683862 38.25282706692815,84.54546926124021 46.51219001598656,83.1428796381224 52.230210518464446,75.07798042683862 52.86554613150656,45.6234373759944 44.60618318244815,34.40260598366149 30.62879973091185,37.909118939889595 27.76978947967291,72.62344288104214 36.02915242686868,83.84417450823821 48.73586465604603,79.63640357973054 51.91254271380603,44.22083505336195 45.24151879362762,40.363676307257265 53.50088174082339,44.22083505336195 44.60618318244815,34.05195453041233 35.07614901103079,35.45456017064862 29.675796313211322,42.11693071271293 28.40512509085238,75.42862853384577 38.570494873449206,85.59741117805243 50.64187149144709,75.77927661128342 51.594874907284975,41.41562903649174 41.74717292934656,33.701303048757836 30.311131924390793,38.9610722695943 29.04046070203185,74.02603593585081 37.61749145761132,84.89611659594811 50.006535878404975,78.58446020446718 51.91254271380603,42.467581507284194 38.88816267810762,33.701303048757836 29.99346411973238,40.013025341322646 29.04046070203185,74.72733229235746 39.84116609767079,84.54546926124021 50.959539296105504,77.53251657146029 52.230210518464446,45.27278683776967 47.14752562716603,35.80521150911227 31.264135342091322,37.55846777372062 28.40512509085238,72.97409118735231 30.946467535570264,80.68834669794887 39.523498291149735,84.89611659594811 51.27720710262656,75.77927661128342 51.27720710262656,41.06497815507464 41.74717292934656,34.05195453041233 29.35812850855291,42.467581507284194 28.722792895510793,74.72733229235746 42.06484073586762,84.1948218990583 50.64187149144709,76.83122067339718 50.64187149144709,42.11693071271293" stroke="#4dd2ff" stroke-linecap="round" stroke-linejoin="round" stroke-width="0.5"><title>2021-12-14 6.5km</title></polyline><polyline fill="none" points="172.01940658688545,41.37934383563697 156.83699826709926,33.0 145.02845846302807,47.89660275680944 149.24579410627484,79.55175451328978 165.69340312108397,83.27587847039104 173.28460728004575,71.17246672371402 172.4411401487887,41.37934383563697 159.78913321718574,35.32759674405679 146.71539271995425,44.17245571361855 147.98059341311455,75.8276281254366 163.16300173290074,86.06896984484047 172.86287371441722,76.75865995045751 171.17593945935369,39.98278738418594 155.15006400831044,35.79311597906053 146.71539271995425,49.758675368502736 149.24579410627484,78.62072314415127 161.8978010378778,86.06896984484047 173.28460728004575,75.36211215658113 173.28460728004575,41.37934383563697 159.78913321718574,34.86207747133449 147.55885984748602,44.63797422684729 147.98059341311455,77.6896916241385 161.47606747597456,86.06896984484047 173.28460728004575,76.29314405750483 173.28460728004575,39.98278738418594 157.25873183086514,34.86207747133449 147.55885984748602,45.569011139683425 147.1371262818575,79.0862388475798 162.7412681672722,86.06896984484047 173.70634084381163,72.10349930822849 169.06727163493633,43.24141857260838 174.97154153697193,47.431084509938955 174.97154153697193,43.24141857260838 159.36739965341985,35.32759674405679 147.55885984748602,45.569011139683425 148.82406054250896,75.8276281254366 164.84993599168956,84.6724243289791 172.01940658688545,73.03453174093738 174.12807440757751,43.24141857260838 160.21086678281426,34.86207747133449 146.71539271995425,48.82763913832605 145.87192559055984,77.22417580615729 159.36739965341985,85.60345471045002 171.17593945935369,79.55175451328978 172.86287371441722,41.84486257703975 162.31953460350633,34.86207747133449 148.82406054250896,43.24141857260838 145.87192559055984,74.8965961500071 161.47606747597456,86.53448494104668 172.4411401487887,78.15520740346983 171.59767302125692,40.913825056515634 161.05433391034603,35.79311597906053 149.66752767004073,44.63797422684729 150.93272836320102,79.55175451328978 162.31953460350633,86.06896984484047 172.4411401487887,76.75865995045751 173.28460728004575,45.569011139683425 161.8978010378778,34.86207747133449 149.66752767004073,41.84486257703975 149.66752767004073,79.55175451328978 160.63260034658015,85.60345471045002 172.86287371441722,77.22417580615729 172.01940658688545,46.034529539290816 164.00646886229515,43.24141857260838 174.54980797320604,44.17245571361855 159.78913321718574,35.32759674405679 147.55885984748602,45.569011139683425 148.40232697688043,73.96556402137503 157.68046539649367,86.06896984484047 164.84993599168956,85.60345471045002 172.86287371441722,75.36211215658113 172.01940658688545,41.84486257703975 160.21086678281426,34.86207747133449 148.40232697688043,44.17245571361855 148.40232697688043,78.15520740346983 164.00646886229515,84.6724243289791 172.86287371441722,73.500047899317 173.28460728004575,43.24141857260838 158.94566608965397,34.39655816135928 147.1371262818575,46.50004790071398 150.0892612338066,77.22417580615729 163.16300173290074,86.53448494104668 173.28460728004575,73.03453174093738 173.28460728004575,42.3103812802583 155.15006400831044,36.724154334980994 147.55885984748602,48.36212096735835 152.19792905822396,80.94830128271133 164.42820242606103,86.06896984484047 173.28460728004575,75.8276281254366 173.70634084381163,44.63797422684729 161.8978010378778,34.86207747133449 149.24579410627484,41.37934383563697 149.24579410627484,78.62072314415127 163.58473529666662,87.0 173.28460728004575,73.96556402137503 172.4411401487887,45.10349270235747 164.42820242606103,38.12071158317849 171.59767302125692,46.96556622488424 172.86287371441722,39.98278738418594 161.05433391034603,33.465519425459206 147.1371262818575,46.96556622488424 149.66752767004073,82.34484771033749 166.11513668484986,86.06896984484047 174.12807440757751,75.36211215658113 172.4411401487887,39.051749560050666 156.41526470147073,35.79311597906053 147.1371262818575,46.96556622488424 149.66752767004073,80.48278573108837 168.22380450554192,85.13793953834102 174.12807440757751,72.56901554344222 170.33247232809663,42.775899946223944" stroke="#4dd2ff" stroke-linecap="round" stroke-linejoin="round" stroke-width="0.5"><title>2021-11-30 5.3km</title></polyline><polyline fill="none" points="48.098381320014596,105.40546308457851 35.53762662038207,94.09460106818005 28.926703091710806,95.18920186813921 22.315779564902186,104.67573091480881 23.968510448932648,139.70274079730734 36.52926514856517,145.90541187860072 46.445650439709425,138.60815089102834 47.43728896975517,102.85139996791258 40.82636544294655,94.4594680313021 31.571072502061725,93.72973407525569 21.985233388841152,106.5000611175783 24.96014897711575,139.70274079730734 37.520903676748276,147.0 46.445650439709425,138.60815089102834 47.43728896975517,101.7568010436371 33.884895738214254,93.36486705252901 23.637964272871614,99.93246890697628 23.30741809681058,137.87842413736507 38.181996032595634,146.27027461491525 47.43728896975517,138.60815089102834 47.43728896975517,101.02706827782094 37.851449854671955,93.36486705252901 24.629602801054716,100.29733539326116 24.629602801054716,138.97301422292367 38.51254220679402,146.27027461491525 47.76783514395356,133.13519733725116 46.445650439709425,99.20273584360257 30.909980149939656,94.09460106818005 23.968510448932648,102.4865336897783 23.968510448932648,137.87842413736507 31.901618679985404,146.63513732282445 45.45401190966368,140.43246725481004 48.098381320014596,110.51358494209126 44.13182720541954,99.5676023894921 49.42056602798402,104.67573091480881 38.51254220679402,93.36486705252901 24.96014897711575,100.66220184974372 24.299056624993682,135.6892431625165 35.868172796443105,146.27027461491525 47.43728896975517,133.8649248648435 47.10674279183149,99.5676023894921 33.55434956215322,93.0 24.629602801054716,103.21626621624455 25.62124132923782,139.33787752548233 38.8430883847177,146.27027461491525 47.10674279183149,137.51356071559712 47.43728896975517,101.02706827782094 33.884895738214254,93.0 23.30741809681058,104.31086478475481 24.299056624993682,138.2432875293307 37.851449854671955,145.90541187860072 46.77619661577046,137.51356071559712 48.42892749607563,102.4865336897783 37.19035750068724,93.36486705252901 24.96014897711575,99.93246890697628 24.96014897711575,139.33787752548233 38.51254220679402,146.27027461491525 47.76783514395356,134.22978858323768 47.43728896975517,103.58113243617117 35.53762662038207,93.0 24.629602801054716,102.85139996791258 24.299056624993682,137.51356071559712 36.85981132462621,146.27027461491525 47.10674279183149,138.60815089102834 44.462373381480575,99.5676023894921 51.73438926041126,95.18920186813921 46.445650439709425,93.36486705252901 48.42892749607563,99.5676023894921 42.479096323251724,100.66220184974372 58.01476661115885,99.20273584360257 57.353674257174134,103.58113243617117 57.684220435097814,97.37840266525745 51.40384308248758,96.64866918511689 39.83472691103816,99.5676023894921 41.81800396926701,102.4865336897783 48.42892749607563,94.4594680313021 34.21544191427529,106.86492706788704 43.14018867537379,104.67573091480881 41.15691161900759,100.29733539326116 45.78455808572471,97.74326935969293 51.40384308248758,99.5676023894921 48.759473672136664,97.01353593962267" stroke="#4dd2ff" stroke-linecap="round" stroke-linejoin="round" stroke-width="0.5"><title>2021-11-23 4.3km</title></polyline><polyline fill="none" points="171.58657666109502,106.73688972461969 157.85433765500784,93.47368639241904 146.26776099577546,103.42109173163772 147.12602593377233,134.21057169511914 157.85433765500784,144.1579072540626 170.29917925409973,135.63162067485973 169.01178184896708,100.10529184481129 154.42127790488303,93.0 146.26776099577546,106.73688972461969 148.41342334076762,138.4737175917253 161.71652987599373,145.1052716569975 170.7283117249608,134.21057169511914 170.29917925409973,100.10529184481129 156.13780778087676,93.0 147.12602593377233,102.47372052958235 148.41342334076762,111.94742560386658 169.01178184896708,106.73688972461969 162.1456623468548,96.78949006507173 147.55515840277076,102.00003486918285 147.12602593377233,135.15793771948665 158.28347012586892,143.68422499578446 170.7283117249608,135.63162067485973 171.58657666109502,104.36846278002486 157.42520518787205,95.84211778175086 147.12602593377233,106.26320441346616 147.12602593377233,136.57898646825925 159.14173506386578,145.1052716569975 172.0157091319561,134.684254726395 172.0157091319561,104.8421482462436 160.00000000186265,95.3684315807186 150.98821815289557,98.2105482025072 151.41735062375665,141.78949557151645 158.71260259486735,145.1052716569975 170.29917925409973,138.4737175917253 171.58657666109502,106.26320441346616 160.00000000186265,96.31580394273624 147.9842908717692,102.94740614993498 147.55515840277076,112.89479526085779 150.98821815289557,104.36846278002486 167.29525197297335,104.8421482462436 167.72438444197178,104.8421482462436 159.5708675328642,93.0 147.12602593377233,102.94740614993498 146.26776099577546,133.73688862333074 158.28347012586892,143.68422499578446 170.29917925409973,136.10530359018594 172.0157091319561,102.94740614993498 157.85433765500784,95.3684315807186 147.12602593377233,104.8421482462436 147.12602593377233,132.3158391797915 156.13780778087676,143.2105426969938 169.4409143179655,138.9474002760835 172.4448415990919,106.26320441346616 157.42520518787205,95.3684315807186 147.55515840277076,104.36846278002486 147.9842908717692,137.05266930768266 156.99607271887362,145.57895380072296 169.4409143179655,138.9474002760835 172.87397406809032,108.1579454280436 166.86611950397491,96.78949006507173 157.85433765500784,94.42105906410143 147.9842908717692,100.10529184481129 148.41342334076762,112.89479526085779 155.70867531187832,101.05266343476251 167.29525197297335,105.78951906366274 164.7204571608454,93.0 147.9842908717692,96.31580394273624 145.4094960577786,133.26320551428944 151.41735062375665,143.68422499578446 163.00392728485167,147.0 170.29917925409973,141.3158131185919 176.30703381821513,114.31584945740178 169.4409143179655,96.78949006507173 152.70474803075194,94.89474534103647 145.4094960577786,112.42111045168713 148.41342334076762,141.3158131185919 161.71652987599373,145.57895380072296 169.01178184896708,140.36844809772447 173.73223900608718,106.73688972461969 165.1495896279812,93.94737274711952 150.98821815289557,95.84211778175086 143.69296618178487,123.31585129210725 148.84255580976605,142.73686035955325 170.29917925409973,139.42108292179182 173.3031065389514,103.42109173163772 161.28739740885794,97.263176149223" stroke="#4dd2ff" stroke-linecap="round" stroke-linejoin="round" stroke-width="0.5"><title>2021-11-16 3.7km</title></polyline><polyline fill="none" points="52.6462025269866,166.2245496660471 43.993537640199065,153.7346982229501 33.6768987365067,154.4693963257596 28.684976685792208,161.08167385542765 27.353797471150756,193.77557007269934 35.67366755567491,206.26531046675518 45.32471685297787,206.63265524897724 52.31340772472322,199.6530992789194 52.31340772472322,169.16333320597187 46.9886908698827,156.30614105751738 36.006462359800935,153.0 30.681745504960418,156.67348991381004 29.35056629218161,200.75513515155762 43.660742837935686,207.0 53.311792133376,194.87760738283396 50.98222851008177,161.08167385542765 35.67366755567491,153.7346982229501 29.35056629218161,161.44902232196182 31.680129915475845,201.1224803822115 28.019387079402804,194.5102616432123 39.3344103936106,207.0 52.31340772472322,197.44902672525495 51.64781811647117,159.61227968800813 39.667205195873976,153.7346982229501 30.01615590043366,159.9796282737516 27.021002668887377,195.97964442474768 40.99838441051543,207.0 53.64458693750203,197.08168119518086 52.6462025269866,161.08167385542765 41.33117921277881,153.3673491263762 29.683361096307635,159.2449310705997 28.352181881666183,199.28575392859057 43.660742837935686,206.63265524897724 52.6462025269866,196.3469900446944 49.65104929730296,162.18371916608885 53.64458693750203,166.2245496660471 49.31825449317694,157.0408387412317 39.999999998137355,153.3673491263762 28.019387079402804,163.6531124948524 28.684976685792208,197.08168119518086 41.66397401690483,206.63265524897724 52.6462025269866,198.1837176969275 52.97899733111262,164.75515717593953 48.652664886787534,156.30614105751738 40.99838441051543,153.7346982229501 28.684976685792208,162.18371916608885 27.68659227527678,197.81637222599238 41.33117921277881,207.0 51.64781811647117,200.38778989156708 53.311792133376,165.48985348129645 41.99676881916821,153.7346982229501 35.340872751548886,154.4693963257596 28.352181881666183,164.02046075137332 28.352181881666183,194.5102616432123 34.67528314702213,202.22451589489356 26.355413062497973,195.6122987740673 30.01615590043366,203.32655113795772 39.00161558948457,206.63265524897724 52.31340772472322,196.71433563530445 52.31340772472322,163.28576420713216 39.3344103936106,153.7346982229501 28.352181881666183,164.75515717593953 29.683361096307635,199.6530992789194 39.3344103936106,206.26531046675518 51.64781811647117,198.5510631375946 52.31340772472322,162.9184158896096 39.3344103936106,154.10204728879035 28.684976685792208,162.9184158896096 29.017771489918232,200.02044459991157 44.65912724658847,205.16327594360337 52.97899733111262,195.97964442474768 52.31340772472322,163.6531124948524 44.32633244432509,157.77553630340844" stroke="#4dd2ff" stroke-linecap="round" stroke-linejoin="round" stroke-width="0.5"><title>2021-11-02 4.1km</title></polyline><polyline fill="none" points="171.66324854455888,165.51661550905555 162.2678538840264,154.07285415870138 151.57654271647334,160.15235609468073 148.6607305817306,194.48350292560644 153.52041747421026,203.78147559450008 165.83162427134812,204.1390895335935 170.04335291311145,198.4172629993409 173.28314417786896,165.51661550905555 164.8596868943423,154.07285415870138 152.22450096905231,156.2185616865754 151.25256359018385,200.2053345933091 161.6198956295848,206.28477255953476 172.31120679713786,194.48350292560644 172.31120679713786,160.8675910627935 158.7040834929794,154.78809011750855 148.6607305817306,162.2980606474448 149.63266795873642,198.0596485924907 153.52041747421026,200.9205630265642 148.6607305817306,201.63579134386964 146.71685582213104,193.7682734413538 156.76020873710513,205.21193117741495 171.33926942013204,196.9868051991798 171.98722767084837,164.08614697307348 159.02806262113154,154.07285415870138 149.30868883244693,163.01329526607879 150.60460533760488,199.8477203324437 156.76020873710513,205.21193117741495 165.1836660206318,204.4967034435831 171.66324854455888,195.91396154183894 171.66324854455888,162.6556779711973 159.35204174742103,154.07285415870138 148.01277232728899,164.08614697307348 149.63266795873642,195.5563469317276 161.94387475773692,207.0 170.04335291311145,200.5629488248378 172.31120679713786,164.801381299505 168.7474364079535,161.22520850342698 172.95916504971683,164.44376415084116 158.38010436668992,153.35761808184907 149.9566470850259,161.22520850342698 149.63266795873642,198.0596485924907 160.3239791262895,204.8543173254002 171.0152902919799,191.98019922245294 171.0152902919799,164.801381299505 160.0,153.0 149.30868883244693,161.22520850342698 148.6607305817306,195.19873229251243 158.7040834929794,205.21193117741495 170.04335291311145,196.27157612354495 171.0152902919799,161.58282591379248 157.7321461159736,153.7152361345943 148.98470970615745,164.44376415084116 147.68879320286214,194.48350292560644 152.22450096905231,201.99340545828454 146.71685582213104,195.91396154183894 157.4081669896841,204.4967034435831 170.04335291311145,197.702034157468 171.0152902919799,161.94044329505414 160.97193737700582,154.07285415870138 148.98470970615745,162.2980606474448 148.98470970615745,194.48350292560644 157.08418786339462,205.21193117741495 165.1836660206318,204.1390895335935 171.0152902919799,194.48350292560644 171.66324854455888,160.5099735937547 160.97193737700582,153.0 148.6607305817306,162.6556779711973 148.01277232728899,195.91396154183894 160.64795825071633,204.8543173254002 169.39539466053247,198.4172629993409 170.69131116569042,166.23184960125946 164.8596868943423,156.57617950672284" stroke="#4dd2ff" stroke-linecap="round" stroke-linejoin="round" stroke-width="0.5"><title>2021-10-19 4.0km</title></polyline><polyline fill="none" points="54.67625142633915,221.7750479571987 52.841719998046756,216.71252256119624 39.388489523902535,213.0 27.158280001953244,224.4750589695759 26.546769523993134,255.86255768849514 30.82734285853803,263.6250206476543 40.917265713214874,267.0 47.643880950286984,263.2875225613825 52.535964760929346,251.1375731055159 51.92445428483188,221.7750479571987 45.197839045897126,215.02501271897927 34.190650476142764,215.70001673861407 25.32374857366085,229.87507570744492 27.158280001953244,258.90004492900334 43.05755237862468,265.98750648391433 52.535964760929346,254.1750638145022 52.841719998046756,223.12505368469283 39.082734286785126,214.68751066783443 29.604321906343102,219.4125368767418 26.241014286875725,227.85007025720552 27.464035239070654,258.56254645762965 42.44604190438986,265.31251066806726 50.39567809179425,258.90004492900334 48.56114666350186,222.7875522938557 51.31294380687177,227.17506822035648 41.22302095219493,216.03751870710403 28.07554571516812,224.4750589695759 28.687056193128228,254.1750638145022 39.082734286785126,263.96251870621927 50.39567809179425,256.8750536835287 51.92445428483188,227.51256925216876 42.14028666727245,216.03751870710403 31.74460857361555,218.73753346386366 27.158280001953244,227.51256925216876 27.76979047805071,252.82506821863353 32.661874286830425,261.93752993945964 39.999999998137355,264.30001673847437 51.00718856975436,255.1875602218788 51.00718856975436,222.7875522938557 39.388489523902535,216.3750206483528 27.464035239070654,223.80005638161674 30.521587619557977,258.56254645762965 28.381300954148173,255.86255768849514 32.967629523947835,262.9500244469382 42.75179714150727,265.65000859019347 50.08992285653949,258.56254645762965 49.78416761755943,225.48756264522672 41.22302095219493,216.71252256119624 30.82734285853803,219.75003854255192 28.07554571516812,225.82506381487474 29.298566667363048,253.50006607128307 42.44604190438986,264.97501271846704 50.70143333077431,255.86255768849514 50.08992285653949,224.81256022281013 37.55395809561014,215.70001673861407 28.381300954148173,227.17506822035648 30.82734285853803,257.8875494294334 41.528776191174984,265.31251066806726 49.78416761755943,260.58753687608987 52.535964760929346,226.50006607268006 44.28057333268225,217.38752630492672 30.215832382440567,220.4250417915173 28.07554571516812,253.50006607128307 35.41367142833769,264.63751474232413 49.17265714146197,261.26253346260637 49.78416761755943,222.7875522938557 41.834531428292394,216.3750206483528 29.298566667363048,221.10004493012093 29.298566667363048,254.85006144666113 40.30575523711741,264.97501271846704 50.70143333077431,256.8750536835287 49.78416761755943,223.80005638161674 43.36330761760473,216.3750206483528 33.27338476292789,217.05002444703132 29.298566667363048,221.7750479571987 29.298566667363048,253.16256715916097" stroke="#4dd2ff" stroke-linecap="round" stroke-linejoin="round" stroke-width="0.5"><title>2021-10-05 4.3km</title></polyline><polyline fill="none" points="168.77697317488492,214.9058951009065 161.294963253662,213.0 150.07194837369025,219.9882774767466 146.0431738011539,253.02360123489052 150.35971798561513,260.32945230137557 158.70503674261272,263.18825985700823 171.3668996859342,253.02360123489052 173.66905658505857,223.8000599059742 162.73381131514907,215.54119326081127 153.52518372051418,218.08238486386836 148.92086992412806,225.38830148242414 147.48202186264098,253.97653910843655 156.97841906920075,263.50590501143597 168.77697317488492,259.05887049180456 171.94243890978396,249.52949370653369 169.06474278867245,224.11770827299915 171.65466929972172,227.29419052088633 163.02158092707396,216.81178926909342 150.64748759754002,224.11770827299915 149.78417876176536,257.1529969999101 158.12949751876295,262.87061467627063 169.06474278867245,255.56476837792434 171.65466929972172,226.02359793288633 168.77697317488492,220.3059261557646 159.28057596832514,216.81178926909342 150.35971798561513,225.07065321900882 148.34533069841564,253.341247218661 156.40287984348834,262.23532423889264 165.03596821427345,260.32945230137557 169.64028201252222,253.02360123489052 171.07913007214665,226.34124611853622 165.03596821427345,217.7647360037081 150.9352572094649,222.21181768039241 148.92086992412806,256.20005990494974 156.11511023156345,262.5529694703873 169.06474278867245,256.20005990494974 170.50359084829688,226.97654241253622 166.47481627576053,223.48241151240654 171.65466929972172,224.11770827299915 162.1582720912993,217.12943820655346 150.64748759754002,223.16476309276186 148.34533069841564,251.4353709288407 157.26618868112564,263.18825985700823 169.64028201252222,253.97653910843655 170.50359084829688,224.75300492998213 158.70503674261272,217.7647360037081 149.78417876176536,225.07065321900882 149.20863953605294,254.6118308941368 152.374105270952,260.32945230137557 161.0071936417371,262.87061467627063 169.35251240059733,253.97653910843655 169.35251240059733,224.11770827299915 159.56834558025002,217.12943820655346 149.20863953605294,226.65889427880757 148.34533069841564,253.6588931765873 157.55395829491317,262.87061467627063 169.64028201252222,253.6588931765873 170.50359084829688,227.29419052088633 166.47481627576053,224.43535661511123 172.2302085235715,223.8000599059742 171.3668996859342,227.92948665935546 167.33812511339784,219.9882774767466 159.8561151921749,217.7647360037081 148.92086992412806,226.02359793288633 148.34533069841564,255.88241415447555 158.9928063545376,263.18825985700823 170.215821236372,252.70595522597432 170.215821236372,223.8000599059742 156.69064945727587,218.08238486386836 149.78417876176536,225.07065321900882 148.34533069841564,253.6588931765873 160.14388480596244,257.1529969999101 171.94243890978396,235.55303223943338 175.39567425847054,244.12950317678042 170.50359084829688,263.18825985700823 162.73381131514907,266.68235513102263 150.07194837369025,262.5529694703873 144.60432573966682,255.24712257552892 148.92086992412806,222.52946617780253 154.38849255815148,215.54119326081127 164.46042899042368,213.63529847026803 174.24459580890834,225.07065321900882 170.215821236372,260.96474305097945 156.40287984348834,267.0 146.0431738011539,257.4706426470075 146.0431738011539,226.65889427880757 160.43165441602468,213.31764924852178 172.80574774742126,220.9412234337069" stroke="#4dd2ff" stroke-linecap="round" stroke-linejoin="round" stroke-width="0.5"><title>2021-05-11 4.8km</title></polyline></svg>