<?xml version="1.0" encoding="utf-8" ?>
<svg baseProfile="full" height="300mm" version="1.1" viewBox="0,0,200,300" width="200mm" xmlns="http://www.w3.org/2000/svg" xmlns:ev="http://www.w3.org/2001/xml-events" xmlns:xlink="http://www.w3.org/1999/xlink"><defs /><rect fill="#222222" height="300" width="200" x="0" y="0" /><text fill="#FFFFFF" style="font-size:12px; font-family:Arial; font-weight:bold;" x="10" y="20">Running</text><text fill="#FFFFFF" style="font-size:4px; font-family:Arial" x="10" y="280">ATHLETE</text><text fill="#FFFFFF" style="font-size:9px; font-family:Arial" x="10" y="290">GanNaSong</text><text fill="#FFFFFF" style="font-size:4px; font-family:Arial" x="120" y="280">STATISTICS</text><text fill="#FFFFFF" style="font-size:3px; font-family:Arial" x="120" y="285">Number: 9</text><text fill="#FFFFFF" style="font-size:3px; font-family:Arial" x="120" y="290">Weekly: 1.0</text><text fill="#FFFFFF" style="font-size:3px; font-family:Arial" x="141" y="285">Total: 43.8 km</text><text fill="#FFFFFF" style="font-size:3px; font-family:Arial" x="141" y="290">Avg: 4.9 km</text><text fill="#FFFFFF" style="font-size:3px; font-family:Arial" x="167" y="285">Min: 3.7 km</text><text fill="#FFFFFF" style="font-size:3px; font-family:Arial" x="167" y="290">Max: 6.7 km</text><polyline fill="none" points="26.601305136457086,37.12741294456646 25.97811002470553,74.96184333832934 35.01443912088871,84.59237141744234 49.97112176194787,73.92999974009581 53.08709731139243,40.22297000186518 48.413133988156915,34.031853614607826 37.507219560444355,33.0 25.66651246882975,42.63062391895801 28.782488020136952,76.33763441140763 39.37680489011109,87.0 51.21751198358834,80.80895229638554 54.02188997901976,45.382226711604744 42.80437799543142,34.71975588519126 34.07964645512402,35.407658043084666 27.224500246345997,46.07012712955475 28.782488020136952,76.68158210930414 39.37680489011109,86.6560531440191 51.52910953760147,80.46500493423082 52.77549975737929,47.7898776831571 48.72473154217005,41.94272293988615 25.97811002470553,40.22297000186518 24.731719804927707,75.30579114914872 42.18118288554251,83.21658303937875 53.398694867268205,78.74526770738885 55.26828019693494,40.91087126056664 53.08709731139243,47.101977546233684 48.413133988156915,38.15926554915495 39.065207336097956,36.095560086891055 30.652073349803686,40.91087126056664 28.470890464261174,48.82172767911106 30.652073349803686,79.77711012773216 40.623195111751556,85.96815934730694 51.21751198358834,74.96184333832934 51.52910953760147,44.69432618259452 41.24639022164047,36.43951106746681 29.405683130025864,47.7898776831571 29.405683130025864,77.3694774210453 39.37680489011109,84.9363184410613 49.97112176194787,78.05737261963077 52.15230464749038,47.101977546233684 39.37680489011109,37.47136384085752 29.405683130025864,45.03827646118589 29.405683130025864,76.68158210930414 35.63763423077762,81.49684693361633 27.847695354372263,78.40132017759606 36.26082934066653,85.624212407507 50.59431687183678,79.08921520900913 52.15230464749038,47.445927628548816 42.18118288554251,37.47136384085752 29.717280685901642,45.726176934316754 28.470890464261174,76.68158210930414 40.0,86.3121062591672 50.59431687183678,77.71342503419146 51.21751198358834,42.9745743656531 35.32603667676449,38.50321636116132 29.094085574150085,47.101977546233684 29.405683130025864,80.80895229638554 38.75360978208482,86.6560531440191 50.282719315961,78.40132017759606 52.15230464749038,47.445927628548816 48.10153643228114,43.6624751763884 54.956682642921805,45.382226711604744 41.24639022164047,36.78346202010289 29.717280685901642,45.382226711604744 30.028878239914775,76.68158210930414 40.623195111751556,85.624212407507 50.90591442771256,77.02552977879532 51.52910953760147,43.6624751763884 39.065207336097956,37.12741294456646 29.717280685901642,44.00642554019578 31.275268459692597,80.12105754460208 39.065207336097956,85.96815934730694 51.52910953760147,76.33763441140763 51.840707091614604,46.75802743528038 45.29715843498707,37.47136384085752 30.028878239914775,44.00642554019578 32.21006112545729,79.77711012773216 28.470890464261174,78.05737261963077 40.31159755587578,85.96815934730694 50.90591442771256,78.05737261963077 51.840707091614604,44.00642554019578 42.49278044141829,37.47136384085752 29.094085574150085,45.726176934316754 30.340475795790553,78.05737261963077 40.31159755587578,86.3121062591672 51.21751198358834,78.40132017759606 52.15230464749038,47.7898776831571 42.80437799543142,37.47136384085752 30.028878239914775,45.382226711604744 28.782488020136952,74.61789550073445 39.68840244598687,85.624212407507 51.21751198358834,78.05737261963077 51.840707091614604,46.75802743528038 47.16674376651645,42.28667344292626 53.398694867268205,45.03827646118589 39.68840244598687,37.12741294456646 29.405683130025864,46.75802743528038 30.340475795790553,77.3694774210453 40.0,86.3121062591672 51.21751198358834,77.71342503419146 52.15230464749038,46.414077296853065 40.31159755587578,36.78346202010289 29.717280685901642,47.7898776831571 30.340475795790553,75.99368668487296 41.557987777516246,85.624212407507 51.52910953760147,75.99368668487296 50.59431687183678,43.31852478464134 38.75360978208482,37.12741294456646 29.405683130025864,45.726176934316754 31.275268459692597,79.08921520900913 41.86958533152938,82.87263587350026 53.08709731139243,81.8407942103222 52.77549975737929,48.82172767911106" stroke="#4dd2ff" stroke-linecap="round" stroke-linejoin="round" stroke-width="0.5"><title>2022-01-04 6.7km</title></polyline><polyline fill="none" points="108.10052904486656,43.16888301074505 101.11183731816709,34.40260598366149 88.08745728619397,40.363676307257265 86.18145045079291,79.63640357973054 96.02915242686868,87.0 111.91254271380603,79.63640357973054 111.91254271380603,44.92213627160527 99.20583048462868,33.0 88.72279289551079,40.714327245019376 88.08745728619397,76.83122067339718 99.20583048462868,86.2987056474667 110.00653587840497,80.68834669794887 111.59487490728498,46.32473836559802 99.52349829114974,34.05195453041233 93.17014217562973,34.05195453041233 87.76978947967291,41.41562903649174 86.18145045079291,73.67538771475665 96.6644880399108,85.94805842707865 111.27720710262656,78.23381235497072 111.59487490728498,42.11693071271293 100.47650170885026,33.701303048757836 89.35812850855291,37.909118939889595 88.72279289551079,78.93510802579112 102.70017634704709,86.2987056474667 111.59487490728498,72.97409118735231 111.59487490728498,43.8701844017487 100.47650170885026,34.05195453041233 89.99346411973238,38.9610722695943 88.72279289551079,72.62344288104214 96.34682023338974,86.2987056474667 109.68886807188392,79.63640357973054 111.27720710262656,45.974087884416804 106.51219001598656,41.06497815507464 113.81854954734445,42.467581507284194 113.81854954734445,47.02603924041614 111.27720710262656,39.311723322141916 98.5704948734492,33.701303048757836 89.35812850855291,40.714327245019376 89.35812850855291,77.18186863698065 99.20583048462868,86.64935283828527 111.91254271380603,75.42862853384577 111.91254271380603,45.974087884416804 104.28851537592709,35.10390880424529 89.99346411973238,38.25977007811889 88.08745728619397,77.53251657146029 96.6644880399108,86.2987056474667 110.9595392961055,76.48057268117554 110.64187149144709,44.571485677035525 99.52349829114974,34.05195453041233 89.04046070203185,38.9610722695943 87.76978947967291,74.37668412853964 94.75848120450974,84.1948218990583 101.42950512468815,85.59741117805243 112.23021051846445,74.37668412853964 110.9595392961055,41.76627988833934 98.25282706692815,34.40260598366149 88.08745728619397,41.06497815507464 87.76978947967291,77.88316447776742 96.02915242686868,84.89611659594811 105.87685440480709,83.49352708784863 111.59487490728498,75.07798042683862 112.23021051846445,46.67538881697692 102.70017634704709,34.40260598366149 90.62879973091185,38.25977007811889 89.04046070203185,75.07798042683862 98.25282706692815,84.54546926124021 106.51219001598656,83.1428796381224 112.23021051846445,75.07798042683862 112.86554613150656,45.6234373759944 104.60618318244815,34.40260598366149 90.62879973091185,37.909118939889595 87.76978947967291,72.62344288104214 96.02915242686868,83.84417450823821 108.73586465604603,79.63640357973054 111.91254271380603,44.22083505336195 105.24151879362762,40.363676307257265 113.50088174082339,44.22083505336195 104.60618318244815,34.05195453041233 95.0761490110308,35.45456017064862 89.67579631321132,42.11693071271293 88.40512509085238,75.42862853384577 98.5704948734492,85.59741117805243 110.64187149144709,75.77927661128342 111.59487490728498,41.41562903649174 101.74717292934656,33.701303048757836 90.31113192439079,38.9610722695943 89.04046070203185,74.02603593585081 97.61749145761132,84.89611659594811 110.00653587840497,78.58446020446718 111.91254271380603,42.467581507284194 98.88816267810762,33.701303048757836 89.99346411973238,40.013025341322646 89.04046070203185,74.72733229235746 99.8411660976708,84.54546926124021 110.9595392961055,77.53251657146029 112.23021051846445,45.27278683776967 107.14752562716603,35.80521150911227 91.26413534209132,37.55846777372062 88.40512509085238,72.97409118735231 90.94646753557026,80.68834669794887 99.52349829114974,84.89611659594811 111.27720710262656,75.77927661128342 111.27720710262656,41.06497815507464 101.74717292934656,34.05195453041233 89.35812850855291,42.467581507284194 88.72279289551079,74.72733229235746 102.06484073586762,84.1948218990583 110.64187149144709,76.83122067339718 110.64187149144709,42.11693071271293" stroke="#4dd2ff" stroke-linecap="round" stroke-linejoin="round" stroke-width="0.5"><title>2021-12-14 6.5km</title></polyline><polyline fill="none" points="172.01940658688545,41.37934383563697 156.83699826709926,33.0 145.02845846302807,47.89660275680944 149.24579410627484,79.55175451328978 165.69340312108397,83.27587847039104 173.28460728004575,71.17246672371402 172.4411401487887,41.37934383563697 159.78913321718574,35.32759674405679 146.71539271995425,44.17245571361855 147.98059341311455,75.8276281254366 163.16300173290074,86.06896984484047 172.86287371441722,76.75865995045751 171.17593945935369,39.98278738418594 155.15006400831044,35.79311597906053 146.71539271995425,49.758675368502736 149.24579410627484,78.62072314415127 161.8978010378778,86.06896984484047 173.28460728004575,75.36211215658113 173.28460728004575,41.37934383563697 159.78913321718574,34.86207747133449 147.55885984748602,44.63797422684729 147.98059341311455,77.6896916241385 161.47606747597456,86.06896984484047 173.28460728004575,76.29314405750483 173.28460728004575,39.98278738418594 157.25873183086514,34.86207747133449 147.55885984748602,45.569011139683425 147.1371262818575,79.0862388475798 162.7412681672722,86.06896984484047 173.70634084381163,72.10349930822849 169.06727163493633,43.24141857260838 174.97154153697193,47.431084509938955 174.97154153697193,43.24141857260838 159.36739965341985,35.32759674405679 147.55885984748602,45.569011139683425 148.82406054250896,75.8276281254366 164.84993599168956,84.6724243289791 172.01940658688545,73.03453174093738 174.12807440757751,43.24141857260838 160.21086678281426,34.86207747133449 146.71539271995425,48.82763913832605 145.87192559055984,77.22417580615729 159.36739965341985,85.60345471045002 171.17593945935369,79.55175451328978 172.86287371441722,41.84486257703975 162.31953460350633,34.86207747133449 148.82406054250896,43.24141857260838 145.87192559055984,74.8965961500071 161.47606747597456,86.53448494104668 172.4411401487887,78.15520740346983 171.59767302125692,40.913825056515634 161.05433391034603,35.79311597906053 149.66752767004073,44.63797422684729 150.93272836320102,79.55175451328978 162.31953460350633,86.06896984484047 172.4411401487887,76.75865995045751 173.28460728004575,45.569011139683425 161.8978010378778,34.86207747133449 149.66752767004073,41.84486257703975 149.66752767004073,79.55175451328978 160.63260034658015,85.60345471045002 172.86287371441722,77.22417580615729 172.01940658688545,46.034529539290816 164.00646886229515,43.24141857260838 174.54980797320604,44.17245571361855 159.78913321718574,35.32759674405679 147.55885984748602,45.569011139683425 148.40232697688043,73.96556402137503 157.68046539649367,86.06896984484047 164.84993599168956,85.60345471045002 172.86287371441722,75.36211215658113 172.01940658688545,41.84486257703975 160.21086678281426,34.86207747133449 148.40232697688043,44.17245571361855 148.40232697688043,78.15520740346983 164.00646886229515,84.6724243289791 172.86287371441722,73.500047899317 173.28460728004575,43.24141857260838 158.94566608965397,34.39655816135928 147.1371262818575,46.50004790071398 150.0892612338066,77.22417580615729 163.16300173290074,86.53448494104668 173.28460728004575,73.03453174093738 173.28460728004575,42.3103812802583 155.15006400831044,36.724154334980994 147.55885984748602,48.36212096735835 152.19792905822396,80.94830128271133 164.42820242606103,86.06896984484047 173.28460728004575,75.8276281254366 173.70634084381163,44.63797422684729 161.8978010378778,34.86207747133449 149.24579410627484,41.37934383563697 149.24579410627484,78.62072314415127 163.58473529666662,87.0 173.28460728004575,73.96556402137503 172.4411401487887,45.10349270235747 164.42820242606103,38.12071158317849 171.59767302125692,46.96556622488424 172.86287371441722,39.98278738418594 161.05433391034603,33.465519425459206 147.1371262818575,46.96556622488424 149.66752767004073,82.34484771033749 166.11513668484986,86.06896984484047 174.12807440757751,75.36211215658113 172.4411401487887,39.051749560050666 156.41526470147073,35.79311597906053 147.1371262818575,46.96556622488424 149.66752767004073,80.48278573108837 168.22380450554192,85.13793953834102 174.12807440757751,72.56901554344222 170.33247232809663,42.775899946223944" stroke="#4dd2ff" stroke-linecap="round" stroke-linejoin="round" stroke-width="0.5"><title>2021-11-30 5.3km</title></polyline><polyline fill="none" points="48.098381320014596,135.4054630845785 35.53762662038207,124.09460106818005 28.926703091710806,125.18920186813921 22.315779564902186,134.6757309148088 23.968510448932648,169.70274079730734 36.52926514856517,175.90541187860072 46.445650439709425,168.60815089102834 47.43728896975517,132.85139996791258 40.82636544294655,124.4594680313021 31.571072502061725,123.72973407525569 21.985233388841152,136.5000611175783 24.96014897711575,169.70274079730734 37.520903676748276,177.0 46.445650439709425,168.60815089102834 47.43728896975517,131.7568010436371 33.884895738214254,123.36486705252901 23.637964272871614,129.93246890697628 23.30741809681058,167.87842413736507 38.181996032595634,176.27027461491525 47.43728896975517,168.60815089102834 47.43728896975517,131.02706827782094 37.851449854671955,123.36486705252901 24.629602801054716,130.29733539326116 24.629602801054716,168.97301422292367 38.51254220679402,176.27027461491525 47.76783514395356,163.13519733725116 46.445650439709425,129.20273584360257 30.909980149939656,124.09460106818005 23.968510448932648,132.4865336897783 23.968510448932648,167.87842413736507 31.901618679985404,176.63513732282445 45.45401190966368,170.43246725481004 48.098381320014596,140.51358494209126 44.13182720541954,129.5676023894921 49.42056602798402,134.6757309148088 38.51254220679402,123.36486705252901 24.96014897711575,130.66220184974372 24.299056624993682,165.6892431625165 35.868172796443105,176.27027461491525 47.43728896975517,163.8649248648435 47.10674279183149,129.5676023894921 33.55434956215322,123.0 24.629602801054716,133.21626621624455 25.62124132923782,169.33787752548233 38.8430883847177,176.27027461491525 47.10674279183149,167.51356071559712 47.43728896975517,131.02706827782094 33.884895738214254,123.0 23.30741809681058,134.3108647847548 24.299056624993682,168.2432875293307 37.851449854671955,175.90541187860072 46.77619661577046,167.51356071559712 48.42892749607563,132.4865336897783 37.19035750068724,123.36486705252901 24.96014897711575,129.93246890697628 24.96014897711575,169.33787752548233 38.51254220679402,176.27027461491525 47.76783514395356,164.22978858323768 47.43728896975517,133.58113243617117 35.53762662038207,123.0 24.629602801054716,132.85139996791258 24.299056624993682,167.51356071559712 36.85981132462621,176.27027461491525 47.10674279183149,168.60815089102834 44.462373381480575,129.5676023894921 51.73438926041126,125.18920186813921 46.445650439709425,123.36486705252901 48.42892749607563,129.5676023894921 42.479096323251724,130.66220184974372 58.01476661115885,129.20273584360257 57.353674257174134,133.58113243617117 57.684220435097814,127.37840266525745 51.40384308248758,126.64866918511689 39.83472691103816,129.5676023894921 41.81800396926701,132.4865336897783 48.42892749607563,124.4594680313021 34.21544191427529,136.86492706788704 43.14018867537379,134.6757309148088 41.15691161900759,130.29733539326116 45.78455808572471,127.74326935969293 51.40384308248758,129.5676023894921 48.759473672136664,127.01353593962267" stroke="#4dd2ff" stroke-linecap="round" stroke-linejoin="round" stroke-width="0.5"><title>2021-11-23 4.3km</title></polyline><polyline fill="none" points="111.58657666109502,136.7368897246197 97.85433765500784,123.47368639241904 86.26776099577546,133.42109173163772 87.12602593377233,164.21057169511914 97.85433765500784,174.1579072540626 110.29917925409973,165.63162067485973 109.01178184896708,130.1052918448113 94.42127790488303,123.0 86.26776099577546,136.7368897246197 88.41342334076762,168.4737175917253 101.71652987599373,175.1052716569975 110.7283117249608,164.21057169511914 110.29917925409973,130.1052918448113 96.13780778087676,123.0 87.12602593377233,132.47372052958235 88.41342334076762,141.94742560386658 109.01178184896708,136.7368897246197 102.1456623468548,126.78949006507173 87.55515840277076,132.00003486918285 87.12602593377233,165.15793771948665 98.28347012586892,173.68422499578446 110.7283117249608,165.63162067485973 111.58657666109502,134.36846278002486 97.42520518787205,125.84211778175086 87.12602593377233,136.26320441346616 87.12602593377233,166.57898646825925 99.14173506386578,175.1052716569975 112.0157091319561,164.684254726395 112.0157091319561,134.8421482462436 100.00000000186265,125.3684315807186 90.98821815289557,128.2105482025072 91.41735062375665,171.78949557151645 98.71260259486735,175.1052716569975 110.29917925409973,168.4737175917253 111.58657666109502,136.26320441346616 100.00000000186265,126.31580394273624 87.98429087176919,132.94740614993498 87.55515840277076,142.8947952608578 90.98821815289557,134.36846278002486 107.29525197297335,134.8421482462436 107.72438444197178,134.8421482462436 99.57086753286421,123.0 87.12602593377233,132.94740614993498 86.26776099577546,163.73688862333074 98.28347012586892,173.68422499578446 110.29917925409973,166.10530359018594 112.0157091319561,132.94740614993498 97.85433765500784,125.3684315807186 87.12602593377233,134.8421482462436 87.12602593377233,162.3158391797915 96.13780778087676,173.2105426969938 109.44091431796551,168.9474002760835 112.44484159909189,136.26320441346616 97.42520518787205,125.3684315807186 87.55515840277076,134.36846278002486 87.98429087176919,167.05266930768266 96.99607271887362,175.57895380072296 109.44091431796551,168.9474002760835 112.87397406809032,138.1579454280436 106.86611950397491,126.78949006507173 97.85433765500784,124.42105906410143 87.98429087176919,130.1052918448113 88.41342334076762,142.8947952608578 95.70867531187832,131.0526634347625 107.29525197297335,135.78951906366274 104.7204571608454,123.0 87.98429087176919,126.31580394273624 85.4094960577786,163.26320551428944 91.41735062375665,173.68422499578446 103.00392728485167,177.0 110.29917925409973,171.3158131185919 116.30703381821513,144.31584945740178 109.44091431796551,126.78949006507173 92.70474803075194,124.89474534103647 85.4094960577786,142.42111045168713 88.41342334076762,171.3158131185919 101.71652987599373,175.57895380072296 109.01178184896708,170.36844809772447 113.73223900608718,136.7368897246197 105.14958962798119,123.94737274711952 90.98821815289557,125.84211778175086 83.69296618178487,153.31585129210725 88.84255580976605,172.73686035955325 110.29917925409973,169.42108292179182 113.3031065389514,133.42109173163772 101.28739740885794,127.263176149223" stroke="#4dd2ff" stroke-linecap="round" stroke-linejoin="round" stroke-width="0.5"><title>2021-11-16 3.7km</title></polyline><polyline fill="none" points="172.6462025269866,136.2245496660471 163.99353764019907,123.7346982229501 153.6768987365067,124.46939632575959 148.6849766857922,131.08167385542765 147.35379747115076,163.77557007269934 155.6736675556749,176.26531046675518 165.32471685297787,176.63265524897724 172.31340772472322,169.6530992789194 172.31340772472322,139.16333320597187 166.9886908698827,126.30614105751738 156.00646235980093,123.0 150.68174550496042,126.67348991381004 149.3505662921816,170.75513515155762 163.6607428379357,177.0 173.311792133376,164.87760738283396 170.98222851008177,131.08167385542765 155.6736675556749,123.7346982229501 149.3505662921816,131.44902232196182 151.68012991547585,171.1224803822115 148.0193870794028,164.5102616432123 159.3344103936106,177.0 172.31340772472322,167.44902672525495 171.64781811647117,129.61227968800813 159.66720519587398,123.7346982229501 150.01615590043366,129.9796282737516 147.02100266888738,165.97964442474768 160.99838441051543,177.0 173.64458693750203,167.08168119518086 172.6462025269866,131.08167385542765 161.3311792127788,123.36734912637621 149.68336109630764,129.2449310705997 148.35218188166618,169.28575392859057 163.6607428379357,176.63265524897724 172.6462025269866,166.3469900446944 169.65104929730296,132.18371916608885 173.64458693750203,136.2245496660471 169.31825449317694,127.04083874123171 159.99999999813735,123.36734912637621 148.0193870794028,133.6531124948524 148.6849766857922,167.08168119518086 161.66397401690483,176.63265524897724 172.6462025269866,168.1837176969275 172.97899733111262,134.75515717593953 168.65266488678753,126.30614105751738 160.99838441051543,123.7346982229501 148.6849766857922,132.18371916608885 147.68659227527678,167.81637222599238 161.3311792127788,177.0 171.64781811647117,170.38778989156708 173.311792133376,135.48985348129645 161.9967688191682,123.7346982229501 155.3408727515489,124.46939632575959 148.35218188166618,134.02046075137332 148.35218188166618,164.5102616432123 154.67528314702213,172.22451589489356 146.35541306249797,165.6122987740673 150.01615590043366,173.32655113795772 159.00161558948457,176.63265524897724 172.31340772472322,166.71433563530445 172.31340772472322,133.28576420713216 159.3344103936106,123.7346982229501 148.35218188166618,134.75515717593953 149.68336109630764,169.6530992789194 159.3344103936106,176.26531046675518 171.64781811647117,168.5510631375946 172.31340772472322,132.9184158896096 159.3344103936106,124.10204728879035 148.6849766857922,132.9184158896096 149.01777148991823,170.02044459991157 164.65912724658847,175.16327594360337 172.97899733111262,165.97964442474768 172.31340772472322,133.6531124948524 164.3263324443251,127.77553630340844" stroke="#4dd2ff" stroke-linecap="round" stroke-linejoin="round" stroke-width="0.5"><title>2021-11-02 4.1km</title></polyline><polyline fill="none" points="51.66324854455888,225.51661550905555 42.26785388402641,214.07285415870138 31.57654271647334,220.15235609468073 28.660730581730604,254.48350292560644 33.52041747421026,263.7814755945001 45.83162427134812,264.1390895335935 50.04335291311145,258.4172629993409 53.28314417786896,225.51661550905555 44.8596868943423,214.07285415870138 32.224500969052315,216.2185616865754 31.252563590183854,260.2053345933091 41.61989562958479,266.28477255953476 52.31120679713786,254.48350292560644 52.31120679713786,220.8675910627935 38.70408349297941,214.78809011750855 28.660730581730604,222.2980606474448 29.63266795873642,258.0596485924907 33.52041747421026,260.9205630265642 28.660730581730604,261.63579134386964 26.716855822131038,253.7682734413538 36.76020873710513,265.21193117741495 51.33926942013204,256.9868051991798 51.98722767084837,224.08614697307348 39.02806262113154,214.07285415870138 29.308688832446933,223.01329526607879 30.60460533760488,259.8477203324437 36.76020873710513,265.21193117741495 45.18366602063179,264.4967034435831 51.66324854455888,255.91396154183894 51.66324854455888,222.6556779711973 39.352041747421026,214.07285415870138 28.012772327288985,224.08614697307348 29.63266795873642,255.5563469317276 41.94387475773692,267.0 50.04335291311145,260.5629488248378 52.31120679713786,224.801381299505 48.7474364079535,221.22520850342698 52.95916504971683,224.44376415084116 38.38010436668992,213.35761808184907 29.956647085025907,221.22520850342698 29.63266795873642,258.0596485924907 40.32397912628949,264.8543173254002 51.01529029197991,251.98019922245294 51.01529029197991,224.801381299505 40.0,213.0 29.308688832446933,221.22520850342698 28.660730581730604,255.19873229251243 38.70408349297941,265.21193117741495 50.04335291311145,256.27157612354495 51.01529029197991,221.58282591379248 37.73214611597359,213.7152361345943 28.984709706157446,224.44376415084116 27.688793202862144,254.48350292560644 32.224500969052315,261.99340545828454 26.716855822131038,255.91396154183894 37.408166989684105,264.4967034435831 50.04335291311145,257.702034157468 51.01529029197991,221.94044329505414 40.971937377005816,214.07285415870138 28.984709706157446,222.2980606474448 28.984709706157446,254.48350292560644 37.08418786339462,265.21193117741495 45.18366602063179,264.1390895335935 51.01529029197991,254.48350292560644 51.66324854455888,220.5099735937547 40.971937377005816,213.0 28.660730581730604,222.6556779711973 28.012772327288985,255.91396154183894 40.64795825071633,264.8543173254002 49.395394660532475,258.4172629993409 50.69131116569042,226.23184960125946 44.8596868943423,216.57617950672284" stroke="#4dd2ff" stroke-linecap="round" stroke-linejoin="round" stroke-width="0.5"><title>2021-10-19 4.0km</title></polyline><polyline fill="none" points="114.67625142633915,221.7750479571987 112.84171999804676,216.71252256119624 99.38848952390254,213.0 87.15828000195324,224.4750589695759 86.54676952399313,255.86255768849514 90.82734285853803,263.6250206476543 100.91726571321487,267.0 107.64388095028698,263.2875225613825 112.53596476092935,251.1375731055159 111.92445428483188,221.7750479571987 105.19783904589713,215.02501271897927 94.19065047614276,215.70001673861407 85.32374857366085,229.87507570744492 87.15828000195324,258.90004492900334 103.05755237862468,265.98750648391433 112.53596476092935,254.1750638145022 112.84171999804676,223.12505368469283 99.08273428678513,214.68751066783443 89.6043219063431,219.4125368767418 86.24101428687572,227.85007025720552 87.46403523907065,258.56254645762965 102.44604190438986,265.31251066806726 110.39567809179425,258.90004492900334 108.56114666350186,222.7875522938557 111.31294380687177,227.17506822035648 101.22302095219493,216.03751870710403 88.07554571516812,224.4750589695759 88.68705619312823,254.1750638145022 99.08273428678513,263.96251870621927 110.39567809179425,256.8750536835287 111.92445428483188,227.51256925216876 102.14028666727245,216.03751870710403 91.74460857361555,218.73753346386366 87.15828000195324,227.51256925216876 87.76979047805071,252.82506821863353 92.66187428683043,261.93752993945964 99.99999999813735,264.30001673847437 111.00718856975436,255.1875602218788 111.00718856975436,222.7875522938557 99.38848952390254,216.3750206483528 87.46403523907065,223.80005638161674 90.52158761955798,258.56254645762965 88.38130095414817,255.86255768849514 92.96762952394783,262.9500244469382 102.75179714150727,265.65000859019347 110.08992285653949,258.56254645762965 109.78416761755943,225.48756264522672 101.22302095219493,216.71252256119624 90.82734285853803,219.75003854255192 88.07554571516812,225.82506381487474 89.29856666736305,253.50006607128307 102.44604190438986,264.97501271846704 110.70143333077431,255.86255768849514 110.08992285653949,224.81256022281013 97.55395809561014,215.70001673861407 88.38130095414817,227.17506822035648 90.82734285853803,257.8875494294334 101.52877619117498,265.31251066806726 109.78416761755943,260.58753687608987 112.53596476092935,226.50006607268006 104.28057333268225,217.38752630492672 90.21583238244057,220.4250417915173 88.07554571516812,253.50006607128307 95.4136714283377,264.63751474232413 109.17265714146197,261.26253346260637 109.78416761755943,222.7875522938557 101.8345314282924,216.3750206483528 89.29856666736305,221.10004493012093 89.29856666736305,254.85006144666113 100.30575523711741,264.97501271846704 110.70143333077431,256.8750536835287 109.78416761755943,223.80005638161674 103.36330761760473,216.3750206483528 93.27338476292789,217.05002444703132 89.29856666736305,221.7750479571987 89.29856666736305,253.16256715916097" stroke="#4dd2ff" stroke-linecap="round" stroke-linejoin="round" stroke-width="0.5"><title>2021-10-05 4.3km</title></polyline><polyline fill="none" points="168.77697317488492,214.9058951009065 161.294963253662,213.0 150.07194837369025,219.9882774767466 146.0431738011539,253.02360123489052 150.35971798561513,260.32945230137557 158.70503674261272,263.18825985700823 171.3668996859342,253.02360123489052 173.66905658505857,223.8000599059742 162.73381131514907,215.54119326081127 153.52518372051418,218.08238486386836 148.92086992412806,225.38830148242414 147.48202186264098,253.97653910843655 156.97841906920075,263.50590501143597 168.77697317488492,259.05887049180456 171.94243890978396,249.52949370653369 169.06474278867245,224.11770827299915 171.65466929972172,227.29419052088633 163.02158092707396,216.81178926909342 150.64748759754002,224.11770827299915 149.78417876176536,257.1529969999101 158.12949751876295,262.87061467627063 169.06474278867245,255.56476837792434 171.65466929972172,226.02359793288633 168.77697317488492,220.3059261557646 159.28057596832514,216.81178926909342 150.35971798561513,225.07065321900882 148.34533069841564,253.341247218661 156.40287984348834,262.23532423889264 165.03596821427345,260.32945230137557 169.64028201252222,253.02360123489052 171.07913007214665,226.34124611853622 165.03596821427345,217.7647360037081 150.9352572094649,222.21181768039241 148.92086992412806,256.20005990494974 156.11511023156345,262.5529694703873 169.06474278867245,256.20005990494974 170.50359084829688,226.97654241253622 166.47481627576053,223.48241151240654 171.65466929972172,224.11770827299915 162.1582720912993,217.12943820655346 150.64748759754002,223.16476309276186 148.34533069841564,251.4353709288407 157.26618868112564,263.18825985700823 169.64028201252222,253.97653910843655 170.50359084829688,224.75300492998213 158.70503674261272,217.7647360037081 149.78417876176536,225.07065321900882 149.20863953605294,254.6118308941368 152.374105270952,260.32945230137557 161.0071936417371,262.87061467627063 169.35251240059733,253.97653910843655 169.35251240059733,224.11770827299915 159.56834558025002,217.12943820655346 149.20863953605294,226.65889427880757 148.34533069841564,253.6588931765873 157.55395829491317,262.87061467627063 169.64028201252222,253.6588931765873 170.50359084829688,227.29419052088633 166.47481627576053,224.43535661511123 172.2302085235715,223.8000599059742 171.3668996859342,227.92948665935546 167.33812511339784,219.9882774767466 159.8561151921749,217.7647360037081 148.92086992412806,226.02359793288633 148.34533069841564,255.88241415447555 158.9928063545376,263.18825985700823 170.215821236372,252.70595522597432 170.215821236372,223.8000599059742 156.69064945727587,218.08238486386836 149.78417876176536,225.07065321900882 148.34533069841564,253.6588931765873 160.14388480596244,257.1529969999101 171.94243890978396,235.55303223943338 175.39567425847054,244.12950317678042 170.50359084829688,263.18825985700823 162.73381131514907,266.68235513102263 150.07194837369025,262.5529694703873 144.60432573966682,255.24712257552892 148.92086992412806,222.52946617780253 154.38849255815148,215.54119326081127 164.46042899042368,213.63529847026803 174.24459580890834,225.07065321900882 170.215821236372,260.96474305097945 156.40287984348834,267.0 146.0431738011539,257.4706426470075 146.0431738011539,226.65889427880757 160.43165441602468,213.31764924852178 172.80574774742126,220.9412234337069" stroke="#4dd2ff" stroke-linecap="round" stroke-linejoin="round" stroke-width="0.5"><title>2021-05-11 4.8km</title></polyline></svg>