<?xml version="1.0" encoding="utf-8" ?>
<svg baseProfile="full" height="300mm" version="1.1" viewBox="0,0,200,300" width="200mm" xmlns="http://www.w3.org/2000/svg" xmlns:ev="http://www.w3.org/2001/xml-events" xmlns:xlink="http://www.w3.org/1999/xlink"><defs /><rect fill="#222222" height="300" width="200" x="0" y="0" /><text fill="#FFFFFF" style="font-size:12px; font-family:Arial; font-weight:bold;" x="10" y="20">Over 3km Runs</text><text fill="#FFFFFF" style="font-size:4px; font-family:Arial" x="10" y="280">ATHLETE</text><text fill="#FFFFFF" style="font-size:9px; font-family:Arial" x="10" y="290">GanNaSong</text><text fill="#FFFFFF" style="font-size:4px; font-family:Arial" x="120" y="280">STATISTICS</text><text fill="#FFFFFF" style="font-size:3px; font-family:Arial" x="120" y="285">Number: 9</text><text fill="#FFFFFF" style="font-size:3px; font-family:Arial" x="120" y="290">Weekly: 1.0</text><text fill="#FFFFFF" style="font-size:3px; font-family:Arial" x="141" y="285">Total: 43.8 km</text><text fill="#FFFFFF" style="font-size:3px; font-family:Arial" x="141" y="290">Avg: 4.9 km</text><text fill="#FFFFFF" style="font-size:3px; font-family:Arial" x="167" y="285">Min: 3.7 km</text><text fill="#FFFFFF" style="font-size:3px; font-family:Arial" x="167" y="290">Max: 6.7 km</text><polyline fill="none" points="26.601305136457086,37.12741294456646 25.97811002470553,74.96184333832934 35.01443912088871,84.5923714172095 49.97112176194787,73.92999973963015 53.08709731139243,40.222970001166686 48.413133988156915,34.031853614607826 37.507219560444355,33.0 25.66651246882975,42.63062391849235 28.782488020136952,76.33763441140763 39.37680489011109,87.0 51.21751198358834,80.80895229615271 54.02188997901976,45.382226711604744 42.80437799543142,34.71975588519126 34.07964645512402,35.407658042386174 27.224500246345997,46.07012712932192 28.782488020136952,76.68158210907131 39.37680489011109,86.6560531440191 51.52910953760147,80.46500493423082 52.77549975737929,47.78987768292427 48.72473154217005,41.94272293942049 25.97811002470553,40.222970001166686 24.731719804927707,75.30579114891589 42.18118288554251,83.21658303868026 53.398694867268205,78.74526770738885 55.26828019693494,40.910871259868145 53.08709731139243,47.101977546233684 48.413133988156915,38.15926554915495 39.065207336097956,36.095560086891055 30.652073349803686,40.910871259868145 28.470890464261174,48.82172767887823 30.652073349803686,79.77711012773216 40.623195111751556,85.96815934730694 51.21751198358834,74.96184333832934 51.52910953760147,44.69432618212886 41.24639022164047,36.43951106700115 29.405683130025864,47.78987768292427 29.405683130025864,77.36947742057964 39.37680489011109,84.9363184410613 49.97112176194787,78.05737261916511 52.15230464749038,47.101977546233684 39.37680489011109,37.47136384039186 29.405683130025864,45.03827646118589 29.405683130025864,76.68158210907131 35.63763423077762,81.49684693361633 27.847695354372263,78.40132017759606 36.26082934066653,85.624212407507 50.59431687183678,79.08921520831063 52.15230464749038,47.445927628548816 42.18118288554251,37.47136384039186 29.717280685901642,45.726176934316754 28.470890464261174,76.68158210907131 40.0,86.3121062591672 50.59431687183678,77.71342503395863 51.21751198358834,42.9745743656531 35.32603667676449,38.50321636046283 29.094085574150085,47.101977546233684 29.405683130025864,80.80895229615271 38.75360978208482,86.6560531440191 50.282719315961,78.40132017759606 52.15230464749038,47.445927628548816 48.10153643228114,43.6624751763884 54.956682642921805,45.382226711604744 41.24639022164047,36.78346201963723 29.717280685901642,45.382226711604744 30.028878239914775,76.68158210907131 40.623195111751556,85.624212407507 50.90591442771256,77.02552977879532 51.52910953760147,43.6624751763884 39.065207336097956,37.12741294456646 29.717280685901642,44.00642553973012 31.275268459692597,80.12105754460208 39.065207336097956,85.96815934730694 51.52910953760147,76.33763441140763 51.840707091614604,46.75802743504755 45.29715843498707,37.47136384039186 30.028878239914775,44.00642553973012 32.21006112545729,79.77711012773216 28.470890464261174,78.05737261916511 40.31159755587578,85.96815934730694 50.90591442771256,78.05737261916511 51.840707091614604,44.00642553973012 42.49278044141829,37.47136384039186 29.094085574150085,45.726176934316754 30.340475795790553,78.05737261916511 40.31159755587578,86.3121062591672 51.21751198358834,78.40132017759606 52.15230464749038,47.78987768292427 42.80437799543142,37.47136384039186 30.028878239914775,45.382226711604744 28.782488020136952,74.61789550073445 39.68840244598687,85.624212407507 51.21751198358834,78.05737261916511 51.840707091614604,46.75802743504755 47.16674376651645,42.286673442227766 53.398694867268205,45.03827646118589 39.68840244598687,37.12741294456646 29.405683130025864,46.75802743504755 30.340475795790553,77.36947742057964 40.0,86.3121062591672 51.21751198358834,77.71342503395863 52.15230464749038,46.414077296853065 40.31159755587578,36.78346201963723 29.717280685901642,47.78987768292427 30.340475795790553,75.99368668487296 41.557987777516246,85.624212407507 51.52910953760147,75.99368668487296 50.59431687183678,43.31852478417568 38.75360978208482,37.12741294456646 29.405683130025864,45.726176934316754 31.275268459692597,79.08921520831063 41.86958533152938,82.87263587350026 53.08709731139243,81.8407942103222 52.77549975737929,48.82172767887823" stroke="#4dd2ff" stroke-linecap="round" stroke-linejoin="round" stroke-width="0.5"><title>2022-01-04 6.7km</title></polyline><polyline fill="none" points="108.10052904486656,43.16888301074505 101.11183731816709,34.40260598366149 88.08745728619397,40.363676307257265 86.18145045079291,79.63640357973054 96.02915242686868,87.0 111.91254271380603,79.63640357973054 111.91254271380603,44.92213627160527 99.20583048462868,33.0 88.72279289551079,40.714327244553715 88.08745728619397,76.83122067339718 99.20583048462868,86.29870564723387 110.00653587840497,80.68834669725038 111.59487490728498,46.32473836536519 99.52349829114974,34.0519545301795 93.17014217562973,34.0519545301795 87.76978947967291,41.415629036026075 86.18145045079291,73.67538771475665 96.6644880399108,85.94805842661299 111.27720710262656,78.23381235497072 111.59487490728498,42.11693071201444 100.47650170885026,33.701303048059344 89.35812850855291,37.909118939889595 88.72279289551079,78.93510802555829 102.70017634704709,86.29870564723387 111.59487490728498,72.97409118735231 111.59487490728498,43.8701844017487 100.47650170885026,34.0519545301795 89.99346411973238,38.9610722695943 88.72279289551079,72.62344288104214 96.34682023338974,86.29870564723387 109.68886807188392,79.63640357973054 111.27720710262656,45.974087884416804 106.51219001598656,41.06497815507464 113.81854954734445,42.467581507284194 113.81854954734445,47.02603924041614 111.27720710262656,39.311723321443424 98.5704948734492,33.701303048059344 89.35812850855291,40.714327244553715 89.35812850855291,77.18186863628216 99.20583048462868,86.64935283805244 111.91254271380603,75.42862853361294 111.91254271380603,45.974087884416804 104.28851537592709,35.10390880377963 89.99346411973238,38.2597700774204 88.08745728619397,77.5325165707618 96.6644880399108,86.29870564723387 110.9595392961055,76.48057268117554 110.64187149144709,44.571485677035525 99.52349829114974,34.0519545301795 89.04046070203185,38.9610722695943 87.76978947967291,74.37668412853964 94.75848120450974,84.1948218990583 101.42950512468815,85.59741117805243 112.23021051846445,74.37668412853964 110.9595392961055,41.76627988810651 98.25282706692815,34.40260598366149 88.08745728619397,41.06497815507464 87.76978947967291,77.88316447776742 96.02915242686868,84.89611659594811 105.87685440480709,83.49352708738297 111.59487490728498,75.07798042683862 112.23021051846445,46.67538881674409 102.70017634704709,34.40260598366149 90.62879973091185,38.2597700774204 89.04046070203185,75.07798042683862 98.25282706692815,84.54546926124021 106.51219001598656,83.1428796381224 112.23021051846445,75.07798042683862 112.86554613150656,45.62343737552874 104.60618318244815,34.40260598366149 90.62879973091185,37.909118939889595 87.76978947967291,72.62344288104214 96.02915242686868,83.84417450823821 108.73586465604603,79.63640357973054 111.91254271380603,44.22083505312912 105.24151879362762,40.363676307257265 113.50088174082339,44.22083505312912 104.60618318244815,34.0519545301795 95.0761490110308,35.45456017064862 89.67579631321132,42.11693071201444 88.40512509085238,75.42862853361294 98.5704948734492,85.59741117805243 110.64187149144709,75.77927661105059 111.59487490728498,41.415629036026075 101.74717292934656,33.701303048059344 90.31113192439079,38.9610722695943 89.04046070203185,74.02603593585081 97.61749145761132,84.89611659594811 110.00653587840497,78.58446020446718 111.91254271380603,42.467581507284194 98.88816267810762,33.701303048059344 89.99346411973238,40.013025340856984 89.04046070203185,74.72733229212463 99.8411660976708,84.54546926124021 110.9595392961055,77.5325165707618 112.23021051846445,45.27278683753684 107.14752562716603,35.80521150841378 91.26413534209132,37.55846777302213 88.40512509085238,72.97409118735231 90.94646753557026,80.68834669725038 99.52349829114974,84.89611659594811 111.27720710262656,75.77927661105059 111.27720710262656,41.06497815507464 101.74717292934656,34.0519545301795 89.35812850855291,42.467581507284194 88.72279289551079,74.72733229212463 102.06484073586762,84.1948218990583 110.64187149144709,76.83122067339718 110.64187149144709,42.11693071201444" stroke="#4dd2ff" stroke-linecap="round" stroke-linejoin="round" stroke-width="0.5"><title>2021-12-14 6.5km</title></polyline><polyline fill="none" points="172.01940658688545,41.37934383563697 156.8369982689619,33.0 145.02845846302807,47.89660275680944 149.2457941081375,79.55175451375544 165.69340312108397,83.2758784708567 173.2846072819084,71.17246672371402 172.44114015065134,41.37934383563697 159.78913321904838,35.32759674312547 146.7153927218169,44.172455713152885 147.9805934149772,75.8276281254366 163.16300173476338,86.0689698443748 172.86287371627986,76.75865994999185 171.17593945935369,39.98278738418594 155.15006401017308,35.79311597906053 146.7153927218169,49.758675368502736 149.2457941081375,78.62072314461693 161.89780103974044,86.0689698443748 173.2846072819084,75.3621121570468 173.2846072819084,41.37934383563697 159.78913321904838,34.86207747133449 147.55885984934866,44.63797422684729 147.9805934149772,77.68969162460417 161.4760674778372,86.0689698443748 173.2846072819084,76.29314405750483 173.2846072819084,39.98278738418594 157.25873183086514,34.86207747133449 147.55885984934866,45.569011139217764 147.13712628372014,79.08623884711415 162.74126816913486,86.0689698443748 173.70634084567428,72.10349930822849 169.06727163679898,43.24141857260838 174.97154153883457,47.431084509938955 174.97154153883457,43.24141857260838 159.36739965341985,35.32759674312547 147.55885984934866,45.569011139217764 148.8240605443716,75.8276281254366 164.84993599168956,84.6724243289791 172.01940658688545,73.03453174093738 174.12807440944016,43.24141857260838 160.2108667846769,34.86207747133449 146.7153927218169,48.82763913832605 145.87192559055984,77.22417580615729 159.36739965341985,85.60345471091568 171.17593945935369,79.55175451375544 172.86287371627986,41.84486257703975 162.31953460536897,34.86207747133449 148.8240605443716,43.24141857260838 145.87192559055984,74.8965961500071 161.4760674778372,86.53448494104668 172.44114015065134,78.15520740346983 171.59767302125692,40.913825056515634 161.05433391220868,35.79311597906053 149.66752767190337,44.63797422684729 150.93272836320102,79.55175451375544 162.31953460536897,86.0689698443748 172.44114015065134,76.75865994999185 173.2846072819084,45.569011139217764 161.89780103974044,34.86207747133449 149.66752767190337,41.84486257703975 149.66752767190337,79.55175451375544 160.6326003484428,85.60345471091568 172.86287371627986,77.22417580615729 172.01940658688545,46.034529539290816 164.0064688641578,43.24141857260838 174.5498079750687,44.172455713152885 159.78913321904838,35.32759674312547 147.55885984934866,45.569011139217764 148.40232697874308,73.96556402137503 157.68046539649367,86.0689698443748 164.84993599168956,85.60345471091568 172.86287371627986,75.3621121570468 172.01940658688545,41.84486257703975 160.2108667846769,34.86207747133449 148.40232697874308,44.172455713152885 148.40232697874308,78.15520740346983 164.0064688641578,84.6724243289791 172.86287371627986,73.500047899317 173.2846072819084,43.24141857260838 158.94566608965397,34.39655816089362 147.13712628372014,46.50004790024832 150.08926123566926,77.22417580615729 163.16300173476338,86.53448494104668 173.2846072819084,73.03453174093738 173.2846072819084,42.310381279326975 155.15006401017308,36.724154334980994 147.55885984934866,48.36212096689269 152.19792905822396,80.94830128317699 164.42820242606103,86.0689698443748 173.2846072819084,75.8276281254366 173.70634084567428,44.63797422684729 161.89780103974044,34.86207747133449 149.2457941081375,41.37934383563697 149.2457941081375,78.62072314461693 163.58473529852927,87.0 173.2846072819084,73.96556402137503 172.44114015065134,45.10349270235747 164.42820242606103,38.12071158317849 171.59767302125692,46.96556622488424 172.86287371627986,39.98278738418594 161.05433391220868,33.465519425459206 147.13712628372014,46.96556622488424 149.66752767190337,82.34484771033749 166.1151366867125,86.0689698443748 174.12807440944016,75.3621121570468 172.44114015065134,39.051749560050666 156.41526470333338,35.79311597906053 147.13712628372014,46.96556622488424 149.66752767190337,80.48278573108837 168.22380450740457,85.13793953880668 174.12807440944016,72.56901554297656 170.33247232809663,42.77589994529262" stroke="#4dd2ff" stroke-linecap="round" stroke-linejoin="round" stroke-width="0.5"><title>2021-11-30 5.3km</title></polyline><polyline fill="none" points="48.098381320014596,135.4054630845785 35.53762662038207,124.09460106818005 28.926703091710806,125.18920186813921 22.315779564902186,134.6757309148088 23.968510448932648,169.70274079730734 36.52926514856517,175.90541187860072 46.445650439709425,168.60815089056268 47.43728896975517,132.85139996791258 40.82636544294655,124.45946803083643 31.571072502061725,123.72973407479003 21.985233388841152,136.50006111711264 24.96014897711575,169.70274079730734 37.520903676748276,177.0 46.445650439709425,168.60815089056268 47.43728896975517,131.75680104317144 33.884895738214254,123.36486705159768 23.637964272871614,129.93246890651062 23.30741809681058,167.87842413736507 38.181996032595634,176.27027461491525 47.43728896975517,168.60815089056268 47.43728896975517,131.02706827782094 37.851449854671955,123.36486705159768 24.629602801054716,130.29733539326116 24.629602801054716,168.973014222458 38.51254220679402,176.27027461491525 47.76783514395356,163.13519733725116 46.445650439709425,129.2027358431369 30.909980149939656,124.09460106818005 23.968510448932648,132.4865336897783 23.968510448932648,167.87842413736507 31.901618679985404,176.63513732282445 45.45401190966368,170.43246725434437 48.098381320014596,140.51358494209126 44.13182720541954,129.56760238902643 49.42056602798402,134.6757309148088 38.51254220679402,123.36486705159768 24.96014897711575,130.66220184927806 24.299056624993682,165.6892431625165 35.868172796443105,176.27027461491525 47.43728896975517,163.8649248648435 47.10674279183149,129.56760238902643 33.55434956215322,123.0 24.629602801054716,133.21626621624455 25.62124132923782,169.33787752548233 38.8430883847177,176.27027461491525 47.10674279183149,167.51356071513146 47.43728896975517,131.02706827782094 33.884895738214254,123.0 23.30741809681058,134.3108647847548 24.299056624993682,168.2432875293307 37.851449854671955,175.90541187860072 46.77619661577046,167.51356071513146 48.42892749607563,132.4865336897783 37.19035750068724,123.36486705159768 24.96014897711575,129.93246890651062 24.96014897711575,169.33787752548233 38.51254220679402,176.27027461491525 47.76783514395356,164.22978858323768 47.43728896975517,133.5811324357055 35.53762662038207,123.0 24.629602801054716,132.85139996791258 24.299056624993682,167.51356071513146 36.85981132462621,176.27027461491525 47.10674279183149,168.60815089056268 44.462373381480575,129.56760238902643 51.73438926041126,125.18920186813921 46.445650439709425,123.36486705159768 48.42892749607563,129.56760238902643 42.479096323251724,130.66220184927806 58.01476661115885,129.2027358431369 57.353674257174134,133.5811324357055 57.684220435097814,127.37840266479179 51.40384308248758,126.64866918511689 39.83472691103816,129.56760238902643 41.81800396926701,132.4865336897783 48.42892749607563,124.45946803083643 34.21544191427529,136.86492706788704 43.14018867537379,134.6757309148088 41.15691161900759,130.29733539326116 45.78455808572471,127.74326935969293 51.40384308248758,129.56760238902643 48.759473672136664,127.01353593915701" stroke="#4dd2ff" stroke-linecap="round" stroke-linejoin="round" stroke-width="0.5"><title>2021-11-23 4.3km</title></polyline><polyline fill="none" points="111.58657666109502,136.73688972508535 97.85433765500784,123.4736863928847 86.26776099577546,133.42109173210338 87.12602593190968,164.21057169511914 97.85433765500784,174.15790725499392 110.29917925409973,165.6316206753254 109.01178184896708,130.1052918457426 94.42127790488303,123.0 86.26776099577546,136.73688972508535 88.41342334076762,168.4737175917253 101.71652987599373,175.10527165792882 110.7283117249608,164.21057169511914 110.29917925409973,130.1052918457426 96.13780778087676,123.0 87.12602593190968,132.473720530048 88.41342334076762,141.94742560433224 109.01178184896708,136.73688972508535 102.1456623468548,126.7894900655374 87.55515840277076,132.00003486964852 87.12602593190968,165.15793771995232 98.28347012586892,173.68422499578446 110.7283117249608,165.6316206753254 111.58657666109502,134.36846278002486 97.42520518787205,125.84211778221652 87.12602593190968,136.26320441393182 87.12602593190968,166.5789864687249 99.14173506386578,175.10527165792882 112.0157091319561,164.68425472686067 112.0157091319561,134.84214824717492 100.00000000186265,125.36843158118427 90.98821815289557,128.2105482025072 91.41735062375665,171.78949557198212 98.71260259486735,175.10527165792882 110.29917925409973,168.4737175917253 111.58657666109502,136.26320441393182 100.00000000186265,126.3158039432019 87.98429087176919,132.94740614993498 87.55515840277076,142.8947952608578 90.98821815289557,134.36846278002486 107.29525197483599,134.84214824717492 107.72438444197178,134.84214824717492 99.57086753286421,123.0 87.12602593190968,132.94740614993498 86.26776099577546,163.7368886237964 98.28347012586892,173.68422499578446 110.29917925409973,166.1053035906516 112.0157091319561,132.94740614993498 97.85433765500784,125.36843158118427 87.12602593190968,134.84214824717492 87.12602593190968,162.31583918025717 96.13780778087676,173.21054269745946 109.44091431796551,168.94740027701482 112.44484159909189,136.26320441393182 97.42520518787205,125.36843158118427 87.55515840277076,134.36846278002486 87.98429087176919,167.05266930861399 96.99607271887362,175.57895380072296 109.44091431796551,168.94740027701482 112.87397406809032,138.15794542897493 106.86611950397491,126.7894900655374 97.85433765500784,124.42105906456709 87.98429087176919,130.1052918457426 88.41342334076762,142.8947952608578 95.70867531187832,131.05266343429685 107.29525197483599,135.7895190641284 104.7204571608454,123.0 87.98429087176919,126.3158039432019 85.4094960577786,163.26320551522076 91.41735062375665,173.68422499578446 103.00392728485167,177.0 110.29917925409973,171.31581311905757 116.30703382007778,144.3158494583331 109.44091431796551,126.7894900655374 92.70474803075194,124.89474534150213 85.4094960577786,142.42111045168713 88.41342334076762,171.31581311905757 101.71652987599373,175.57895380072296 109.01178184896708,170.3684480986558 113.73223900794983,136.73688972508535 105.14958962798119,123.94737274665385 90.98821815289557,125.84211778221652 83.69296618178487,153.31585129303858 88.84255580976605,172.73686036048457 110.29917925409973,169.42108292179182 113.3031065389514,133.42109173210338 101.28739740885794,127.26317614968866" stroke="#4dd2ff" stroke-linecap="round" stroke-linejoin="round" stroke-width="0.5"><title>2021-11-16 3.7km</title></polyline><polyline fill="none" points="172.6462025269866,136.2245496660471 163.99353763833642,123.73469822341576 153.67689873464406,124.46939632575959 148.6849766857922,131.08167385542765 147.35379747115076,163.77557007269934 155.6736675556749,176.26531046675518 165.32471685111523,176.63265524851158 172.31340772286057,169.6530992789194 172.31340772286057,139.16333320597187 166.9886908698827,126.30614105798304 156.0064623579383,123.0 150.68174550496042,126.67348991381004 149.3505662921816,170.75513515155762 163.66074283607304,177.0 173.31179213151336,164.87760738283396 170.98222850821912,131.08167385542765 155.6736675556749,123.73469822341576 149.3505662921816,131.44902232196182 151.68012991547585,171.1224803822115 148.01938707754016,164.5102616432123 159.33441039174795,177.0 172.31340772286057,167.44902672525495 171.64781811647117,129.61227968754247 159.66720519401133,123.73469822341576 150.01615589857101,129.97962827421725 147.02100266888738,165.97964442428201 160.99838440865278,177.0 173.64458693563938,167.08168119518086 172.6462025269866,131.08167385542765 161.3311792127788,123.36734912637621 149.68336109630764,129.24493107013404 148.35218188166618,169.28575392859057 163.66074283607304,176.63265524851158 172.6462025269866,166.34699004422873 169.65104929730296,132.1837191665545 173.64458693563938,136.2245496660471 169.31825449317694,127.04083874076605 159.99999999813735,123.36734912637621 148.01938707754016,133.65311249531806 148.6849766857922,167.08168119518086 161.66397401690483,176.63265524851158 172.6462025269866,168.1837176969275 172.97899733111262,134.7551571764052 168.6526648849249,126.30614105798304 160.99838440865278,123.73469822341576 148.6849766857922,132.1837191665545 147.68659227341413,167.81637222599238 161.3311792127788,177.0 171.64781811647117,170.38778989110142 173.31179213151336,135.48985348129645 161.9967688191682,123.73469822341576 155.3408727515489,124.46939632575959 148.35218188166618,134.02046075137332 148.35218188166618,164.5102616432123 154.67528314515948,172.22451589396223 146.35541306249797,165.6122987740673 150.01615589857101,173.32655113795772 159.00161558948457,176.63265524851158 172.31340772286057,166.7143356348388 172.31340772286057,133.28576420713216 159.33441039174795,123.73469822341576 148.35218188166618,134.7551571764052 149.68336109630764,169.6530992789194 159.33441039174795,176.26531046675518 171.64781811647117,168.55106313712895 172.31340772286057,132.9184158896096 159.33441039174795,124.102047289256 148.6849766857922,132.9184158896096 149.0177714880556,170.02044459991157 164.65912724658847,175.1632759431377 172.97899733111262,165.97964442428201 172.31340772286057,133.65311249531806 164.32633244246244,127.77553630340844" stroke="#4dd2ff" stroke-linecap="round" stroke-linejoin="round" stroke-width="0.5"><title>2021-11-02 4.1km</title></polyline><polyline fill="none" points="51.66324854455888,225.51661550905555 42.26785388588905,214.07285415870138 31.576542718335986,220.1523560951464 28.660730581730604,254.4835029253736 33.52041747607291,263.7814755947329 45.831624273210764,264.13908953382634 50.04335291497409,258.4172629995737 53.28314417786896,225.51661550905555 44.8596868943423,214.07285415870138 32.224500969052315,216.2185616865754 31.252563590183854,260.2053345935419 41.619895631447434,266.2847725593019 52.31120679713786,254.4835029253736 52.31120679713786,220.8675910627935 38.70408349484205,214.78809011727571 28.660730581730604,222.29806064767763 29.632667960599065,258.05964859272353 33.52041747607291,260.920563026797 28.660730581730604,261.63579134386964 26.716855822131038,253.76827344158664 36.76020873710513,265.21193117741495 51.33926942013204,256.98680519871414 51.987227672711015,224.08614697353914 39.02806262113154,214.07285415870138 29.308688834309578,223.01329526631162 30.604605339467525,259.84772033267654 36.76020873710513,265.21193117741495 45.18366602063179,264.4967034435831 51.66324854455888,255.91396154183894 51.66324854455888,222.6556779711973 39.35204174928367,214.07285415870138 28.01277232915163,224.08614697353914 29.632667960599065,255.55634693149477 41.94387475773692,267.0 50.04335291497409,260.5629488241393 52.31120679713786,224.801381299505 48.747436409816146,221.22520850319415 52.959165051579475,224.44376415084116 38.380104368552566,213.35761808231473 29.956647085025907,221.22520850319415 29.632667960599065,258.05964859272353 40.32397912815213,264.8543173254002 51.015290293842554,251.98019922268577 51.015290293842554,224.801381299505 40.0,213.0 29.308688834309578,221.22520850319415 28.660730581730604,255.1987322922796 38.70408349484205,265.21193117741495 50.04335291497409,256.2715761237778 51.015290293842554,221.58282591425814 37.73214611597359,213.7152361345943 28.98470970802009,224.44376415084116 27.688793202862144,254.4835029253736 32.224500969052315,261.9934054585174 26.716855822131038,255.91396154183894 37.40816699154675,264.4967034435831 50.04335291497409,257.70203415770084 51.015290293842554,221.94044329528697 40.97193737886846,214.07285415870138 28.98470970802009,222.29806064767763 28.98470970802009,254.4835029253736 37.08418786339462,265.21193117741495 45.18366602063179,264.13908953382634 51.015290293842554,254.4835029253736 51.66324854455888,220.5099735937547 40.97193737886846,213.0 28.660730581730604,222.6556779711973 28.01277232915163,255.91396154183894 40.647958252578974,264.8543173254002 49.395394660532475,258.4172629995737 50.69131116755307,226.23184960149229 44.8596868943423,216.57617950649" stroke="#4dd2ff" stroke-linecap="round" stroke-linejoin="round" stroke-width="0.5"><title>2021-10-19 4.0km</title></polyline><polyline fill="none" points="114.67625142633915,221.77504795696586 112.84171999804676,216.71252256119624 99.38848952390254,213.0 87.15828000195324,224.47505896934308 86.54676952399313,255.86255768802948 90.82734285853803,263.6250206476543 100.91726571321487,267.0 107.64388095028698,263.2875225613825 112.53596476092935,251.13757310505025 111.92445428483188,221.77504795696586 105.19783904589713,215.0250127185136 94.19065047614276,215.70001673861407 85.32374857366085,229.87507570744492 87.15828000195324,258.90004492900334 103.05755237862468,265.9875064836815 112.53596476092935,254.1750638145022 112.84171999804676,223.12505368422717 99.08273428678513,214.68751066783443 89.6043219063431,219.41253687627614 86.24101428687572,227.85007025720552 87.46403523907065,258.5625464573968 102.44604190438986,265.31251066783443 110.39567809179425,258.90004492900334 108.56114666350186,222.78755229362287 111.31294380687177,227.17506821989082 101.22302095219493,216.03751870663837 88.07554571516812,224.47505896934308 88.68705619312823,254.1750638145022 99.08273428678513,263.96251870621927 110.39567809179425,256.8750536828302 111.92445428483188,227.51256925193593 102.14028666727245,216.03751870663837 91.74460857361555,218.73753346316516 87.15828000195324,227.51256925193593 87.76979047805071,252.82506821863353 92.66187428683043,261.93752993945964 99.99999999813735,264.30001673847437 111.00718856975436,255.18756022164598 111.00718856975436,222.78755229362287 99.38848952390254,216.37502064811997 87.46403523907065,223.80005638161674 90.52158761955798,258.5625464573968 88.38130095414817,255.86255768802948 92.96762952394783,262.9500244464725 102.75179714150727,265.65000858996063 110.08992285653949,258.5625464573968 109.78416761755943,225.48756264522672 101.22302095219493,216.71252256119624 90.82734285853803,219.7500385423191 88.07554571516812,225.82506381487474 89.29856666736305,253.50006607128307 102.44604190438986,264.97501271846704 110.70143333077431,255.86255768802948 110.08992285653949,224.81256022281013 97.55395809561014,215.70001673861407 88.38130095414817,227.17506821989082 90.82734285853803,257.8875494294334 101.52877619117498,265.31251066783443 109.78416761755943,260.58753687608987 112.53596476092935,226.50006607244723 104.28057333268225,217.38752630422823 90.21583238244057,220.4250417908188 88.07554571516812,253.50006607128307 95.4136714283377,264.63751474232413 109.17265714146197,261.26253346260637 109.78416761755943,222.78755229362287 101.8345314282924,216.37502064811997 89.29856666736305,221.10004492942244 89.29856666736305,254.85006144666113 100.30575523711741,264.97501271846704 110.70143333077431,256.8750536828302 109.78416761755943,223.80005638161674 103.36330761760473,216.37502064811997 93.27338476292789,217.05002444633283 89.29856666736305,221.77504795696586 89.29856666736305,253.16256715892814" stroke="#4dd2ff" stroke-linecap="round" stroke-linejoin="round" stroke-width="0.5"><title>2021-10-05 4.3km</title></polyline><polyline fill="none" points="168.77697317488492,214.90589510137215 161.294963253662,213.0 150.07194837369025,219.9882774767466 146.0431738011539,253.02360123489052 150.35971798561513,260.3294523016084 158.70503674261272,263.18825985724106 171.3668996859342,253.02360123489052 173.66905658505857,223.80005990620703 162.7338113170117,215.5411932610441 153.52518372051418,218.08238486386836 148.92086992412806,225.3883014828898 147.48202186264098,253.97653910843655 156.97841906920075,263.50590501143597 168.77697317488492,259.05887049180456 171.94243890978396,249.52949370676652 169.06474278867245,224.11770827323198 171.65466929972172,227.29419052088633 163.0215809289366,216.81178926909342 150.64748759754002,224.11770827323198 149.78417876176536,257.15299700014293 158.12949751876295,262.87061467650346 169.06474278867245,255.56476837815717 171.65466929972172,226.023597933352 168.77697317488492,220.30592615553178 159.28057596832514,216.81178926909342 150.35971798561513,225.07065321947448 148.34533069841564,253.34124721889384 156.40287984348834,262.23532423889264 165.03596821427345,260.3294523016084 169.64028201252222,253.02360123489052 171.0791300740093,226.34124611853622 165.03596821427345,217.7647360037081 150.9352572094649,222.21181768015958 148.92086992412806,256.2000599044841 156.11511023156345,262.55296947062016 169.06474278867245,256.2000599044841 170.50359084829688,226.97654241300188 166.47481627762318,223.48241151263937 171.65466929972172,224.11770827323198 162.1582720912993,217.1294382067863 150.64748759754002,223.16476309276186 148.34533069841564,251.43537092860788 157.26618868112564,263.18825985724106 169.64028201252222,253.97653910843655 170.50359084829688,224.7530049304478 158.70503674261272,217.7647360037081 149.78417876176536,225.07065321947448 149.20863953605294,254.6118308941368 152.374105270952,260.3294523016084 161.0071936417371,262.87061467650346 169.35251240059733,253.97653910843655 169.35251240059733,224.11770827323198 159.56834558025002,217.1294382067863 149.20863953605294,226.6588942790404 148.34533069841564,253.65889317682013 157.55395829491317,262.87061467650346 169.64028201252222,253.65889317682013 170.50359084829688,227.29419052088633 166.47481627762318,224.4353566148784 172.2302085235715,223.80005990620703 171.3668996859342,227.9294866595883 167.33812511339784,219.9882774767466 159.8561151921749,217.7647360037081 148.92086992412806,226.023597933352 148.34533069841564,255.88241415470839 158.99280635640025,263.18825985724106 170.215821236372,252.7059552257415 170.215821236372,223.80005990620703 156.69064945727587,218.08238486386836 149.78417876176536,225.07065321947448 148.34533069841564,253.65889317682013 160.14388480596244,257.15299700014293 171.94243890978396,235.55303223920055 175.39567425847054,244.12950317701325 170.50359084829688,263.18825985724106 162.7338113170117,266.68235513102263 150.07194837369025,262.55296947062016 144.60432573966682,255.24712257552892 148.92086992412806,222.5294661775697 154.38849256001413,215.5411932610441 164.46042899042368,213.6352984707337 174.24459580890834,225.07065321947448 170.215821236372,260.9647430512123 156.40287984348834,267.0 146.0431738011539,257.4706426472403 146.0431738011539,226.6588942790404 160.43165441602468,213.31764924852178 172.80574774742126,220.94122343347408" stroke="#4dd2ff" stroke-linecap="round" stroke-linejoin="round" stroke-width="0.5"><title>2021-05-11 4.8km</title></polyline></svg>