<?xml version="1.0" encoding="utf-8" ?>
<svg baseProfile="full" height="200mm" version="1.1" viewBox="0,0,200,200" width="200mm" xmlns="http://www.w3.org/2000/svg" xmlns:ev="http://www.w3.org/2001/xml-events" xmlns:xlink="http://www.w3.org/1999/xlink"><defs /><rect fill="#1a1a1a" height="200" width="200" x="0" y="0" /><text alignment-baseline="middle" fill="#e1ed5e" style="dominant-baseline: central; font-size:9.0px; font-family:Arial;" text-anchor="middle" x="100.0" y="100.0">2020</text><line stroke="#e1ed5e" stroke-width="0.3" x1="100.0" x2="100.0" y1="15.0" y2="10.0" /><path d="M 100.0 14.0 a86.0,86.0 0 0,1 42.35913384403234,11.155469271406648" fill="none" id="id13" stroke="none" /><text fill="#e1ed5e" style="font-size:6.75px; font-family:Arial;" text-anchor="middle"><textPath startOffset="22.145653131862478" xlink:href="#id13">January</textPath></text><path d="M 100.0 79.0 l 0.0 -13.168034694137972 a34.16803469413797,34.16803469413797 0 0,0 0.5865397506298544,0.005034738326901426 l -0.22604682578099963 13.166094354005505" fill="#ff6d0a" stroke="none" /><path d="M 101.08105385017728 79.02784411241856 l 0.7421557959741955 -14.397624173384651 a35.4167394740811,35.4167394740811 0 0,0 0.6069006537524404,0.03650963626247728 l -0.9892008018590982 14.38276255929748" fill="#ff7f0b" stroke="none" /><path d="M 101.44090949804482 79.04949213459386 l 1.1063247852785454 -16.085719573035277 a37.123719444124916,37.123719444124916 0 0,0 0.6354007522611442,0.04918403678022385 l -1.3822945323149232 16.064357769260003" fill="#ff980e" stroke="none" /><path d="M 103.94208987418118 79.37332000966035 l 3.34291687969281 -17.491553696768747 a38.80813140089323,38.80813140089323 0 0,0 0.6532767066758184,0.13067363741639054 l -3.642690071899585 17.431590662689498" fill="#ffb010" stroke="none" /><path d="M 106.38641147887787 79.99465700312896 l 19.15923443663363 -60.016028990613094 a84.0,84.0 0 0,0 1.3699090494090305,0.4503163143919138 l -20.186666223690402 59.67829175481916" fill="#4dd2ff" stroke="none" /><path d="M 108.07796709384702 80.6158196554323 l 5.493870855323715 -13.183290079316583 a35.28221811520824,35.28221811520824 0 0,0 0.5570640951042625,0.23777753712134544 l -5.719370025598408 13.087037892535836" fill="#ff7e0b" stroke="none" /><path d="M 109.06512990194946 81.05736502329252 l 7.427287781219406 -15.520174871001345 a38.205825519617264,38.205825519617264 0 0,0 0.5891697625242768,0.28819245452392656 l -7.69261779300575 15.390388666380197" fill="#ffa80f" stroke="none" /><path d="M 109.71004243097381 81.37971332152246 l 6.829432563843473 -13.096337435607062 a35.770077974451205,35.770077974451205 0 0,0 0.5420208986503439,0.2885955990827788 l -7.0532422782803765 12.977171368801711" fill="#ff850c" stroke="none" /><line stroke="#e1ed5e" stroke-width="0.3" x1="143.13028292997686" x2="145.6673583964461" y1="26.7553504044142" y2="22.446841604673864" /><path d="M 143.63769802327073 25.89364864446614 a86.0,86.0 0 0,1 29.32050498858742,28.57503671076993" fill="none" id="id14" stroke="none" /><text fill="#e1ed5e" style="font-size:6.75px; font-family:Arial;" text-anchor="middle"><textPath startOffset="20.669276256404974" xlink:href="#id14">February</textPath></text><path d="M 110.65571695917076 81.90426304109057 l 13.47716767034696 -22.887177094528973 a47.56043907338463,47.56043907338463 0 0,0 0.6999701810156707,0.42031198192307234 l -13.868070607920066 22.65245111206998" fill="#d8ff1c" stroke="none" /><path d="M 112.7482090630111 83.31218511350987 l 8.998092058929362 -11.778791347774058 a35.82246896827127,35.82246896827127 0 0,0 0.4854627822372961,0.3774987957631088 l -9.198964785801886 11.622591500390158" fill="#ff850c" stroke="none" /><path d="M 114.91283532996326 85.21462403516908 l 12.83307087292106 -12.723387165566344 a39.071311214029635,39.071311214029635 0 0,0 0.46813607608543595,0.4803488546010293 l -13.049593750157307 12.501215618897572" fill="#ffb410" stroke="none" /><path d="M 116.35404254752997 86.82634096563983 l 15.817072760557403 -12.741114184071884 a41.31048451820696,41.31048451820696 0 0,0 0.4401210549135737,0.5560785752627886 l -16.033460246112536 12.467715664894417" fill="#ffd313" stroke="none" /><path d="M 117.62189284568427 88.57770195909679 l 10.147799444055662 -6.577680997402232 a33.093127009188436,33.093127009188436 0 0,0 0.30490164785978036,0.4793560332531915 l -10.259218783541334 6.402511289470369" fill="#ff5d08" stroke="none" /><path d="M 117.81537515405839 88.88188828441811 l 6.3970590867746955 -3.9922379945918407 a28.54057883488724,28.54057883488724 0 0,0 0.2558214880815184,0.4178651750499489 l -6.464648539311616 3.881835703417337" fill="#ff1702" stroke="none" /><line stroke="#e1ed5e" stroke-width="0.3" x1="172.87174338648825" x2="177.1583165268699" y1="56.24261187166439" y2="53.66864786411523" /><path d="M 173.72905801456457 55.72781907015455 a86.0,86.0 0 0,1 12.242430191666344,42.057860355516425" fill="none" id="id15" stroke="none" /><text fill="#e1ed5e" style="font-size:6.75px; font-family:Arial;" text-anchor="middle"><textPath startOffset="22.145653131862474" xlink:href="#id15">March</textPath></text><path d="M 118.00360718960297 89.18935116829356 l 9.84241223994861 -5.910085754615939 a32.480513591647565,32.480513591647565 0 0,0 0.28293046878094014,0.48047779049859884 l -9.942416418859318 5.740256795823783" fill="#ff5407" stroke="none" /><path d="M 118.8641267826498 90.77261029715802 l 6.442266413072535 -3.151235328720581 a28.17168603844167,28.17168603844167 0 0,0 0.20876660408679432,0.436241909307062 l -6.495412275119242 3.040180917348416" fill="#ff1101" stroke="none" /><path d="M 119.0197475246899 91.09779779509293 l 8.12064562747608 -3.800872189094172 a29.96613154068553,29.96613154068553 0 0,0 0.21406596472856487,0.4677727656876561 l -8.184696057059696 3.660910441191832" fill="#ff2d04" stroke="none" /><path d="M 119.94978838288452 93.4421083053983 l 9.751064395023358 -3.2053685473932814 a31.264387188746845,31.264387188746845 0 0,0 0.16322285597562572,0.5112932715846642 l -9.804651966776241 3.0375062421172303" fill="#ff4106" stroke="none" /><path d="M 120.05942366710727 93.78553927170692 l 10.796291848224069 -3.3447188122356724 a32.30252456776594,32.30252456776594 0 0,0 0.1595493676829486,0.5310879543969714 l -10.852117535910645 3.1588932542479777" fill="#ff5107" stroke="none" /><path d="M 120.65975698304385 96.23510406497455 l 14.08289151682889 -2.5663719601653256 a35.31482093889735,35.31482093889735 0 0,0 0.1035652234643361,0.5973366875551465 l -14.124871557785461 2.3242422396895868" fill="#ff7e0b" stroke="none" /><path d="M 120.93736805541906 98.37931529534042 l 11.221394225555132 -0.8686068821150359 a32.25496185160037,32.25496185160037 0 0,0 0.037993332808595175,0.552414720646627 l -11.234651519528793 0.6758487373140747" fill="#ff5007" stroke="none" /><line stroke="#e1ed5e" stroke-width="0.3" x1="184.99686870605535" x2="189.99668451229388" y1="99.2704041080226" y2="99.22748670261217" /><path d="M 185.99683186730306 99.26182062694052 a86.0,86.0 0 0,1 -10.086455211305974,41.156179273409016" fill="none" id="id16" stroke="none" /><text fill="#e1ed5e" style="font-size:6.75px; font-family:Arial;" text-anchor="middle"><textPath startOffset="21.40746469413373" xlink:href="#id16">April</textPath></text><path d="M 120.99303781780057 100.54070618675476 l 14.235748274200429 0.3666623778678039 a35.24046945243534,35.24046945243534 0 0,0 -0.02076723046914197,0.6046152560729656 l -14.22735635673444 -0.6109838985048802" fill="#ff7d0b" stroke="none" /><path d="M 120.96210409425399 101.26102812881392 l 18.030032691880397 1.0846419942227068 a39.062627913067004,39.062627913067004 0 0,0 -0.04601212766915233,0.6690062380355544 l -18.00875660304618 -1.3939916564126047" fill="#ffb410" stroke="none" /><path d="M 120.7213421655516 103.40968896794604 l 12.451181430386317 2.048837166139842 a33.61862325080486,33.61862325080486 0 0,0 -0.09859090707431581,0.568646152490657 l -12.414175705819765 -2.262276351551087" fill="#ff6509" stroke="none" /><path d="M 120.65975698304385 103.76489593502545 l 11.734807395087772 2.1384728143865783 a32.92806650625646,32.92806650625646 0 0,0 -0.10611258802181055,0.5552258994418019 l -11.696368514783803 -2.3396012788616947" fill="#ff5b08" stroke="none" /><path d="M 120.16314734710363 105.8691983318838 l 30.138385250684443 8.77284470494125 a52.38925086292582,52.38925086292582 0 0,0 -0.2587621853216993,0.8613351570962156 l -29.983346745359114 -9.28891746562819" fill="#9cff22" stroke="none" /><path d="M 120.05942366710727 106.21446072829308 l 12.334140287158124 3.8211481896904957 a33.912481950069555,33.912481950069555 0 0,0 -0.17704783796640908,0.5545998307636144 l -12.266727733414461 -4.032317054145493" fill="#ff6909" stroke="none" /><path d="M 119.16976305983485 108.57439118712176 l 22.063165572400003 9.868573328397973 a45.169650692823524,45.169650692823524 0 0,0 -0.32267377719019563,0.705100436505784 l -21.89050733035475 -10.245862747118446" fill="#f7ff18" stroke="none" /><line stroke="#e1ed5e" stroke-width="0.3" x1="174.33088141563837" x2="178.70328620479359" y1="141.23008692659167" y2="143.65538615756765" /><path d="M 175.20536237346943 141.71514677278685 a86.0,86.0 0 0,1 -30.301960400862466,31.631185727798858" fill="none" id="id17" stroke="none" /><text fill="#e1ed5e" style="font-size:6.75px; font-family:Arial;" text-anchor="middle"><textPath startOffset="22.145653131862474" xlink:href="#id17">May</textPath></text><path d="M 118.36410011445183 110.18625677009912 l 5.310652745240674 2.9457295561834846 a27.07291982482111,27.07291982482111 0 0,0 -0.22891653677807144,0.4044735861279476 l -5.259302843441224 -3.036459912410554" fill="#ff0000" stroke="none" /><path d="M 118.00360718960297 110.81064883170644 l 15.900277030592356 9.547659504804646 a39.54660647313328,39.54660647313328 0 0,0 -0.35447324930090224,0.5790054130341342 l -15.734035816836048 -9.819202033963336" fill="#ffbb11" stroke="none" /><path d="M 116.79662413953412 112.60449989151573 l 16.09418620237525 12.077377368015545 a41.12177610466283,41.12177610466283 0 0,0 -0.42854378038973684,0.5609775649703296 l -15.88449044463121 -12.35187584622675" fill="#ffd013" stroke="none" /><path d="M 116.57777611688842 112.89097897827486 l 10.36470522056373 8.059657469869427 a34.129554175249176,34.129554175249176 0 0,0 -0.3636155702971757,0.45941639468696693 l -10.224823219624993 -8.236393808471076" fill="#ff6d0a" stroke="none" /><path d="M 115.16444852881244 114.52719865689866 l 8.655724956990792 8.291988708377254 a32.986602991295285,32.986602991295285 0 0,0 -0.3952316522765791,0.40554249324394953 l -8.512106503563405 -8.43935389368894" fill="#ff5b08" stroke="none" /><path d="M 113.03279911837588 116.46651593811092 l 5.78032939128048 7.303257357419657 a30.31395597479424,30.31395597479424 0 0,0 -0.41081192424723206,0.319449837068359 l -5.654107522398017 -7.401408246108809" fill="#ff3304" stroke="none" /><path d="M 110.96478420261333 117.91015095944535 l 11.648651952159499 19.027197533672407 a43.30975881285897,43.30975881285897 0 0,0 -0.6374108462120281,0.38274689884916824 l -11.320308349390036 -19.224358433057496" fill="#ffee16" stroke="none" /><line stroke="#e1ed5e" stroke-width="0.3" x1="143.1302829299769" x2="145.66735839644613" y1="173.24464959558577" y2="177.55315839532614" /><path d="M 143.63769802327073 174.10635135553383 a86.0,86.0 0 0,1 -40.68552437913181,11.842963189579606" fill="none" id="id18" stroke="none" /><text fill="#e1ed5e" style="font-size:6.75px; font-family:Arial;" text-anchor="middle"><textPath startOffset="21.407464694133747" xlink:href="#id18">June</textPath></text><path d="M 108.73861861582097 119.09545874513695 l 6.184819061520487 13.514945831550719 a35.86289835979165,35.86289835979165 0 0,0 -0.5619999611884929,0.2513754342886959 l -5.951905697476367 -13.619125016749265" fill="#ff860c" stroke="none" /><path d="M 106.38641147887787 120.00534299687104 l 4.760540066089286 14.912323953356777 a36.65375825195661,36.65375825195661 0 0,0 -0.6010507140247741,0.18620704762043322 l -4.503848719192888 -14.991847588783854" fill="#ff910d" stroke="none" /><path d="M 102.51750503828377 120.84855314841334 l 0.8025907340490381 6.646602616792606 a27.69488448234439,27.69488448234439 0 0,0 -0.4724801342541489,0.05294238454242903 l -0.6883746981940899 -6.659400761842005" fill="#ff0a01" stroke="none" /><path d="M 101.80034050326958 120.92268563240118 l 1.3008784856331133 15.118179895095205 a36.174045214603915,36.174045214603915 0 0,0 -0.619146354025293,0.04792584355677022 l -1.0411631368325844 -15.13828350564703" fill="#ff8b0c" stroke="none" /><path d="M 101.44090949804482 120.95050786540614 l 1.0356174569074812 15.057650536645468 a36.093221763453656,36.093221763453656 0 0,0 -0.618492842919725,0.03720699357683635 l -0.776980261855291 -15.073209508046997" fill="#ff890c" stroke="none" /><line stroke="#e1ed5e" stroke-width="0.3" x1="101.45913802915013" x2="101.54496967792366" y1="184.9874750549273" y2="189.98673829345242" /><path d="M 101.47630435890484 185.9873277026323 a86.0,86.0 0 0,1 -42.54439059252881,-10.42667462771756" fill="none" id="id19" stroke="none" /><text fill="#e1ed5e" style="font-size:6.75px; font-family:Arial;" text-anchor="middle"><textPath startOffset="22.145653131862474" xlink:href="#id19">July</textPath></text><path d="M 100.36049292484886 120.99690560180557 l 0.20753735727709954 12.088010607760191 a33.08979206636692,33.08979206636692 0 0,0 -0.5680302821259503,0.004875856801161544 l -1.4805725156433311e-15 -12.089792066366918" fill="#ff5d08" stroke="none" /><path d="M 99.27912038922189 120.98762331915562 l -0.5205482899299662 15.155195493306282 a36.16413271382442,36.16413271382442 0 0,0 -0.6202566187491446,-0.026636488009063475 l 0.7806306692799495 -15.14402643687139" fill="#ff8a0c" stroke="none" /><path d="M 98.91894614982273 120.97215588758144 l -0.7019661478016523 13.617955735588263 a34.63603589351028,34.63603589351028 0 0,0 -0.5935225302868088,-0.03570484157559444 l 0.9356330302209075 -13.603898916187976" fill="#ff740a" stroke="none" /><path d="M 96.76829788921471 120.74984581791261 l -1.1482716223637441 7.372727530057633 a28.461611015805875,28.461611015805875 0 0,0 -0.4821159684607095,-0.07933199914356585 l 1.274665093877517 -7.351929532418398" fill="#ff1602" stroke="none" /><path d="M 96.41257539226777 120.69131181640829 l -2.0945725298332984 12.080937741089073 a33.261170041509196,33.261170041509196 0 0,0 -0.5617419873893074,-0.10236810271248019 l 2.301649250773663 -12.043201464445227" fill="#ff6008" stroke="none" /><path d="M 93.95794788825049 120.11202640906438 l -4.240886929577493 14.116533314841195 a35.739797650527045,35.739797650527045 0 0,0 -0.586063528582446,-0.18156397925991113 l 4.482591091031573 -14.041652747774636" fill="#ff840c" stroke="none" /><line stroke="#e1ed5e" stroke-width="0.3" x1="58.13341422392154" x2="55.670673884152215" y1="173.97424548756322" y2="178.32567169271397" /><path d="M 57.64086615596767 174.84453072859336 a86.0,86.0 0 0,1 -31.369924170532244,-30.572349798747897" fill="none" id="id20" stroke="none" /><text fill="#e1ed5e" style="font-size:6.75px; font-family:Arial;" text-anchor="middle"><textPath startOffset="22.145653131862474" xlink:href="#id20">August</textPath></text><path d="M 89.34428304082925 118.09573695890944 l -3.9896270749969265 6.7752589891338495 a28.862649589507825,28.862649589507825 0 0,0 -0.42478569271800415,-0.2550716033928745 l 4.105345524272358 -6.705773385205056" fill="#ff1c02" stroke="none" /><path d="M 87.2517909369889 116.68781488649013 l -8.961496532495355 11.730886628939757 a35.76218551580232,35.76218551580232 0 0,0 -0.48464582647178184,-0.37686352601853124 l 9.161552303602365 -11.575322051300434" fill="#ff850c" stroke="none" /><path d="M 85.34317274990678 115.03919595460226 l -10.324029844299634 10.5933641176399 a35.7920571779212,35.7920571779212 0 0,0 -0.4363359920342,-0.4326066469902474 l 10.504357756463797 -10.414577460420993" fill="#ff850c" stroke="none" /><path d="M 83.8745106332314 113.45245675266167 l -11.393376698571615 9.504760061432583 a35.83743564167874,35.83743564167874 0 0,0 -0.39003618601126516,-0.4757807279370027 l 11.55485970382151 -9.307777051797084" fill="#ff860c" stroke="none" /><path d="M 83.64595745247003 113.17365903436017 l -6.223101835497444 5.01289032841157 a28.990999055165375,28.990999055165375 0 0,0 -0.30886950942282526,-0.3902465351849329 l 6.308237775561829 -4.905323849311956" fill="#ff1e03" stroke="none" /><path d="M 82.18462484594161 111.11811171558189 l -12.647123956767437 7.892740726266476 a35.907887192687845,35.907887192687845 0 0,0 -0.3218578427802542,-0.5257305976256137 l 12.780749764003096 -7.674473012516305" fill="#ff870c" stroke="none" /><line stroke="#e1ed5e" stroke-width="0.3" x1="26.387840678322732" x2="22.057713659400548" y1="142.50000000000003" y2="145.00000000000006" /><path d="M 25.521815274538298 143.00000000000003 a86.0,86.0 0 0,1 -11.493303480769221,-40.785679425670985" fill="none" id="id21" stroke="none" /><text fill="#e1ed5e" style="font-size:6.75px; font-family:Arial;" text-anchor="middle"><textPath startOffset="21.40746469413373" xlink:href="#id21">September</textPath></text><path d="M 80.16572619554312 106.89939002012753 l -11.479558237468453 3.993186255262113 a33.154250030201126,33.154250030201126 0 0,0 -0.18237139120585769,-0.5391486128275552 l 11.546415050246678 -3.795535967960396" fill="#ff5e08" stroke="none" /><path d="M 79.407916724674 104.11899336999214 l -15.47841681201314 3.096116860747673 a36.7850348945391,36.7850348945391 0 0,0 -0.11854189046874754,-0.6202612619674436 l 15.529284994764046 -2.8299530337469148" fill="#ff930d" stroke="none" /><path d="M 79.0935383218832 101.97986365728391 l -14.32478131704592 1.3565716841432298 a35.38887231562665,35.38887231562665 0 0,0 -0.05208294476610631,-0.6052827663277719 l 14.345957884509767 -1.110467870439796" fill="#ff7f0b" stroke="none" /><line stroke="#e1ed5e" stroke-width="0.3" x1="15.003131293944662" x2="10.003315487706104" y1="100.72959589197737" y2="100.7725132973878" /><path d="M 14.003168132696942 100.73817937305945 a86.0,86.0 0 0,1 10.791469493833615,-42.45332614584628" fill="none" id="id22" stroke="none" /><text fill="#e1ed5e" style="font-size:6.75px; font-family:Arial;" text-anchor="middle"><textPath startOffset="22.145653131862435" xlink:href="#id22">October</textPath></text><path d="M 79.00077361379809 100.18025310272382 l -10.253981667866404 0.08801810013918351 a31.25435942567318,31.25435942567318 0 0,0 0.0,-0.5365424057259983 l 10.253981667866404 0.08801810013917975" fill="#ff4106" stroke="none" /><path d="M 79.00696218219943 99.45929381324524 l -15.17861947045444 -0.3909473952889232 a36.18365334478965,36.18365334478965 0 0,0 0.02132304932091574,-0.6207973154909793 l 15.169671734136674 0.6514509753440411" fill="#ff8b0c" stroke="none" /><path d="M 79.01933749520258 99.09900007780938 l -19.898070385134687 -0.854508758465108 a40.91641007486208,40.91641007486208 0 0,0 0.03615921600631485,-0.701479130510268 l 19.880469579671804 1.195959682352088" fill="#ffce13" stroke="none" /><path d="M 79.22317932658666 96.9465228501225 l -12.62367929276579 -1.8552461357654568 a33.75927964702069,33.75927964702069 0 0,0 0.08918640291922202,-0.5726406847499923 l 12.589971397708299 2.071675002446899" fill="#ff6709" stroke="none" /><path d="M 79.2786578344484 96.59031103205396 l -24.862856423658055 -4.091173563086445 a46.19720878721951,46.19720878721951 0 0,0 0.13547921592906048,-0.7814081152782089 l 24.788962390236758 4.517374711285247" fill="#eaff1a" stroke="none" /><path d="M 79.83685265289637 94.1308016681162 l -17.125064022191747 -4.9848565535027465 a38.83582385602542,38.83582385602542 0 0,0 0.19181878885894219,-0.6385023624314232 l 17.036968913329176 5.278096519524893" fill="#ffb110" stroke="none" /><path d="M 80.68587082218212 91.75594674310238 l -13.843519751648271 -5.908975395410316 a36.05187793392706,36.05187793392706 0 0,0 0.24784141253899267,-0.5671096541612649 l 13.740044457092301 6.1457471193474476" fill="#ff890c" stroke="none" /><line stroke="#e1ed5e" stroke-width="0.3" x1="26.387840678322718" x2="22.05771365940052" y1="57.49999999999999" y2="54.99999999999999" /><path d="M 25.521815274538284 56.99999999999999 a86.0,86.0 0 0,1 29.574782752854787,-30.34633250058573" fill="none" id="id23" stroke="none" /><text fill="#e1ed5e" style="font-size:6.75px; font-family:Arial;" text-anchor="middle"><textPath startOffset="21.40746469413373" xlink:href="#id23">November</textPath></text><path d="M 81.81346652052679 89.5 l -19.226050901030664 -11.100165663163503 a43.200331326327,43.200331326327 0 0,0 0.3763083966994937,-0.6390539264692406 l 19.032668794201392 11.428570757926318" fill="#ffed16" stroke="none" /><path d="M 83.2033758604659 87.39550010848427 l -19.777736502219106 -14.841582184952204 a45.727139399936675,45.727139399936675 0 0,0 0.4765378113771483,-0.6238032921619351 l 19.520046713487652 15.178906390355023" fill="#f0ff19" stroke="none" /><path d="M 84.83555147118756 85.47280134310135 l -17.437727234899214 -16.704948233685016 a45.14807707890717,45.14807707890717 0 0,0 0.5409453378911413,-0.5550575713595649 l 17.148395095857268 17.00182849711231" fill="#f7ff18" stroke="none" /><path d="M 86.68645165197937 83.75963576809568 l -9.425083609680204 -11.497069506651467 a35.866566795674025,35.866566795674025 0 0,0 0.4795005237089339,-0.3862516798387955 l 9.226332315616025 11.657169480283663" fill="#ff860c" stroke="none" /><path d="M 88.4268655584334 82.4767994020092 l -14.910466631475089 -22.576346893073687 a48.05574715665287,48.05574715665287 0 0,0 0.692264474643384,-0.4487174687617375 l 14.520716524574677 22.82897820353933" fill="#d2ff1c" stroke="none" /><line stroke="#e1ed5e" stroke-width="0.3" x1="56.869717070023135" x2="54.33264160355391" y1="26.7553504044142" y2="22.446841604673864" /><path d="M 56.362301976729285 25.89364864446614 a86.0,86.0 0 0,1 42.16139366436587,-11.88097634709845" fill="none" id="id24" stroke="none" /><text fill="#e1ed5e" style="font-size:6.75px; font-family:Arial;" text-anchor="middle"><textPath startOffset="22.145653131862474" xlink:href="#id24">December</textPath></text><path d="M 90.93487009805054 81.0573650232925 l -2.6750441534523963 -5.589813438252787 a27.1969246806292,27.1969246806292 0 0,0 0.4228620407719796,-0.19792078663742207 l 2.5786933988088943 5.634910456460752" fill="#ff0200" stroke="none" /><path d="M 93.27111125876988 80.10723608172694 l -11.45645708764108 -33.86897970059272 a56.75413535467084,56.75413535467084 0 0,0 0.9255714715921946,-0.30425372689778085 l 10.873362878401124 34.06065434889253" fill="#69ff28" stroke="none" /><path d="M 95.70440661134978 79.44403061299748 l -6.49003898353533 -31.057185956775538 a52.728053920175185,52.728053920175185 0 0,0 0.8875977319949565,-0.17754440502326255 l 5.955944766009396 31.164019758461666" fill="#98ff23" stroke="none" /><path d="M 98.1996594967304 79.07731436759882 l -1.2717412474365668 -14.779561020567986 a35.834175061698716,35.834175061698716 0 0,0 0.6133292173251054,-0.0474755603860295 l 1.0178430353362442 14.79921434794907" fill="#ff860c" stroke="none" /></svg>